<svg width="149" height="62" viewBox="0 0 149 62" fill="none" xmlns="http://www.w3.org/2000/svg">
<path d="M5.87675 41.4549C4.16269 40.3608 2.81594 39.0235 1.71405 37.3216C0.612161 35.498 0 33.3098 0 31C0 27.5961 1.34675 24.5569 3.55053 22.3686C4.28513 21.6392 5.01972 21.1529 5.75431 20.5451C5.26458 18.6 5.26458 16.6549 5.75431 14.7098C6.36647 12.6431 7.34593 10.698 9.05998 9.11765C11.5086 6.68627 14.5694 5.59216 17.7527 5.59216C18.7321 5.59216 19.7116 5.71373 20.5686 5.95686C21.6705 4.2549 23.1397 2.79608 24.8537 1.82353C26.8127 0.607843 28.894 0 31.2202 0C34.6483 0 37.7091 1.33726 39.9129 3.52549C40.6475 4.2549 41.1372 4.98431 41.7494 5.71373C43.7083 5.22745 45.6672 5.22745 47.6261 5.83529C49.7075 6.32157 51.6664 7.41569 53.258 8.99608C55.7066 11.4275 56.8085 14.4667 56.8085 17.6274C56.8085 18.6 56.6861 19.5725 56.4412 20.4235C58.1553 21.5176 59.502 22.8549 60.4815 24.5569C61.5834 26.3804 62.1956 28.5686 62.1956 30.8784C62.1956 34.2823 60.8488 37.3216 58.645 39.5098C57.9104 40.2392 57.1758 40.7255 56.3188 41.3333C56.8085 43.2784 56.8085 45.2235 56.3188 47.1686C55.8291 49.2353 54.7272 51.1804 53.1356 52.7608C50.6869 55.1922 47.6261 56.2863 44.4429 56.2863C43.4634 56.2863 42.484 56.1647 41.5045 55.9216C40.4026 57.6235 39.0559 58.9608 37.3418 60.0549C35.5053 61.149 33.3016 61.7569 30.9753 61.7569C27.5472 61.7569 24.4864 60.4196 22.2827 58.2314C21.5481 57.502 21.0583 56.7725 20.4462 56.0431C18.4873 56.5294 16.5283 56.5294 14.5694 56.0431C12.4041 55.5321 10.4425 54.3889 8.93755 52.7608C6.48891 50.3294 5.38702 47.2902 5.38702 44.1294C5.50945 43.4 5.63188 42.4274 5.87675 41.4549ZM19.834 54.3412C19.2219 52.8824 18.977 51.4235 18.977 49.7216V31V30.8784V30.7569V30.6353V30.5137V30.3922C18.977 29.7843 19.0994 29.0549 19.2219 28.4471L10.5292 36.9569C8.57025 38.902 7.46836 41.5765 7.46836 44.251C7.46836 46.9255 8.44782 49.4784 10.5292 51.5451C11.8759 52.8824 13.59 53.7333 15.304 54.2196C16.7732 54.5843 18.3648 54.7059 19.834 54.3412ZM22.5275 22.3686L22.65 22.2471L22.7724 22.1255L22.8948 22.0039H23.0173V21.8824C23.507 21.3961 23.9967 21.0314 24.6089 20.6667H12.4881C9.67214 20.6667 6.97863 21.8824 5.14215 23.7059C3.30567 25.5294 2.08135 28.0824 2.08135 31C2.08135 32.9451 2.69351 34.7686 3.55053 36.2274C4.40756 37.4431 5.38702 38.6588 6.61134 39.3882C7.2235 38.051 8.08052 36.7137 9.30485 35.498L22.5275 22.3686ZM38.5661 23.8274C38.4437 23.7059 38.4437 23.7059 38.5661 23.8274L38.4437 23.7059C38.4437 23.7059 38.4437 23.5843 38.3213 23.5843L38.1988 23.4627C37.3418 22.6118 36.3624 22.0039 35.2605 21.6392H35.0156C33.9137 21.1529 32.8118 20.9098 31.7099 20.9098H31.5875H31.2202H31.0978H30.9753H30.8529H30.7305C29.6286 20.9098 28.4043 21.1529 27.4248 21.6392H27.3024H27.1799C26.0781 22.1255 25.0986 22.7333 24.2416 23.4627C24.2416 23.4627 24.1191 23.4627 24.1191 23.5843C24.1191 23.5843 23.9967 23.5843 23.9967 23.7059H23.8743L23.7518 23.8274C23.7518 23.8274 23.7518 23.949 23.6294 23.949L23.507 24.0706V24.1922C23.507 24.1922 23.507 24.3137 23.3846 24.3137C22.5275 25.1647 21.9154 26.1373 21.4256 27.2314V27.3529C20.9359 28.4471 20.691 29.5412 20.691 30.7569V31.7294C20.691 32.9451 20.9359 34.0392 21.4256 35.1333V35.3765C21.9154 36.4706 22.5275 37.4431 23.2621 38.2941C23.2621 38.2941 23.2621 38.4157 23.3846 38.4157V38.5373L23.507 38.6588L23.6294 38.7804C23.6294 38.7804 23.6294 38.902 23.7518 38.902L23.8743 39.0235H23.9967C23.9967 39.0235 24.1191 39.0235 24.1191 39.1451C24.9762 39.9961 25.9556 40.6039 27.0575 40.9686H27.3024C28.4043 41.4549 29.5062 41.698 30.7305 41.698H31.7099C32.8118 41.698 34.0362 41.3333 35.138 40.9686H35.3829C36.4848 40.4824 37.3418 39.8745 38.3213 39.1451C38.3213 39.1451 38.4437 39.1451 38.4437 39.0235H38.5661V38.902H38.6886C38.6886 38.902 38.6886 38.7804 38.811 38.7804C38.811 38.7804 38.9334 38.7804 38.9334 38.6588V38.5373C38.9334 38.5373 39.0559 38.5373 39.0559 38.4157C39.0559 38.4157 39.0559 38.2941 39.1783 38.2941C39.9129 37.4431 40.6475 36.4706 41.0148 35.3765V35.2549V35.1333C41.3821 34.0392 41.7494 32.9451 41.7494 31.7294V31.6078V31.3647V31.2431V31.1216V31V30.8784V30.7569C41.7494 29.6627 41.3821 28.4471 41.0148 27.3529V27.1098C40.5251 26.0157 39.9129 25.0431 39.1783 24.1922C39.1783 24.1922 39.1783 24.0706 39.0559 24.0706L38.9334 23.949V23.8274H38.5661ZM7.71323 19.6941C9.18242 19.0863 10.6516 18.8431 12.3657 18.8431H31.3426C32.1997 18.8431 32.9343 18.9647 33.7913 19.0863L25.221 10.4549C23.2621 8.5098 20.5686 7.41569 17.8751 7.41569C15.1816 7.41569 12.6105 8.38824 10.5292 10.4549C9.18242 11.7922 8.32539 13.4941 7.83566 15.1961C7.46836 16.6549 7.46836 18.2353 7.71323 19.6941ZM39.9129 22.3686C40.0353 22.3686 40.0353 22.4902 39.9129 22.3686L40.1578 22.6118C40.1578 22.6118 40.1578 22.7333 40.2802 22.7333V22.8549H40.4026V22.9765C40.7699 23.4627 41.2597 23.949 41.5045 24.4353V12.4C41.5045 9.60392 40.4026 6.92941 38.4437 5.10588C36.6072 3.28235 34.0362 2.06667 31.0978 2.06667C29.1389 2.06667 27.4248 2.55294 25.8332 3.52549C24.4864 4.2549 23.3845 5.34902 22.5275 6.56471C23.8743 7.17255 25.221 8.02353 26.4454 9.23921L39.9129 22.3686ZM43.2186 33.5529L51.9113 25.0431C53.8702 23.098 54.9721 20.4235 54.9721 17.749C54.9721 15.0745 53.9926 12.5216 51.9113 10.4549C50.5645 9.11765 48.8504 8.26667 47.1364 7.78039C45.6672 7.41569 44.0756 7.41569 42.6064 7.65882C43.2186 9.11765 43.4634 10.5765 43.4634 12.2784V31.1216C43.5859 31.9725 43.4634 32.8235 43.2186 33.5529ZM55.9515 22.4902C55.3394 23.8274 54.4823 25.1647 53.258 26.3804L39.9129 39.6314C39.3007 40.2392 38.6886 40.7255 37.954 41.2118H50.1972C53.0131 41.2118 55.5842 39.9961 57.5431 38.1725C59.3796 36.349 60.6039 33.7961 60.6039 30.8784C60.6039 28.9333 60.1142 27.1098 59.1348 25.651C58.2777 24.4353 57.1758 23.3412 55.9515 22.4902ZM31.2202 43.2784H31.0978H30.9753H30.608H30.4856C29.8735 43.2784 29.2613 43.1569 28.6491 43.0353L37.3418 51.6667C39.3007 53.6118 41.9942 54.7059 44.6878 54.7059C47.3813 54.7059 49.9523 53.7333 52.0337 51.6667C53.3804 50.3294 54.2375 48.6274 54.7272 46.9255C55.0945 45.4667 55.0945 43.8863 54.8496 42.4275C53.3804 43.0353 51.9113 43.2784 50.1972 43.2784H31.2202ZM20.9359 37.6863V49.8431C20.9359 52.6392 22.1602 55.3137 23.9967 57.1373C25.8332 58.9608 28.4043 60.1765 31.3426 60.1765C33.3016 60.1765 35.138 59.5686 36.6072 58.7176C37.954 57.8667 39.0559 56.8941 39.9129 55.6784C38.5661 55.0706 37.2194 54.2196 35.9951 53.0039L22.5275 39.6314C21.9154 39.0235 21.4256 38.4157 20.9359 37.6863Z" fill="#CD4A42"/>
<path d="M73.3369 42.6825V19.5845H81.7847C83.7437 19.5845 85.3353 19.8276 86.8045 20.4355C88.2736 21.0433 89.498 21.8943 90.355 22.8668C91.3344 23.9609 92.069 25.1766 92.5588 26.5139C93.0485 27.9727 93.2934 29.4315 93.2934 31.0119C93.2934 32.7139 93.0485 34.2943 92.4363 35.7531C91.8242 37.2119 91.0896 38.4276 90.1101 39.4002C89.1307 40.3727 87.9063 41.2237 86.4372 41.71C85.0904 42.3178 83.4988 42.5609 81.6623 42.5609H73.3369V42.6825ZM88.6409 31.0119C88.6409 29.9178 88.5185 28.8237 88.1512 27.9727C87.7839 27.1217 87.4166 26.2707 86.8045 25.5413C86.1923 24.9335 85.4577 24.3256 84.6007 23.9609C83.7436 23.5962 82.7642 23.3531 81.6623 23.3531H77.7445V38.5492H81.6623C82.7642 38.5492 83.7436 38.4276 84.6007 37.9413C85.4577 37.5766 86.1923 36.9688 86.8045 36.3609C87.4166 35.6315 87.7839 34.9021 88.1512 33.9296C88.5185 33.2002 88.6409 32.106 88.6409 31.0119ZM104.312 42.9257C102.965 42.9257 101.741 42.6825 100.639 42.1962C99.5374 41.71 98.5579 41.1021 97.7009 40.2511C96.9663 39.4002 96.3542 38.5492 95.8644 37.4551C95.4971 36.3609 95.2523 35.2668 95.2523 34.1727C95.2523 32.957 95.4971 31.7413 95.8644 30.7688C96.2317 29.7962 96.9663 28.8237 97.7009 27.9727C98.5579 27.1217 99.415 26.5139 100.639 26.0276C101.741 25.5413 103.088 25.2982 104.435 25.2982C105.904 25.2982 107.128 25.5413 108.23 26.0276C109.332 26.5139 110.189 27.1217 111.046 27.9727C111.781 28.8237 112.393 29.6747 112.76 30.7688C113.127 31.8629 113.372 32.957 113.372 34.0511V34.9021C113.372 35.1453 113.372 35.3884 113.25 35.51H99.9047C100.027 36.1178 100.15 36.7256 100.394 37.3335C100.639 37.8198 101.007 38.306 101.374 38.6707C101.741 39.0355 102.231 39.2786 102.843 39.5217C103.455 39.7649 103.945 39.8864 104.435 39.8864C105.292 39.8864 106.149 39.6433 106.883 39.2786C107.74 38.9139 108.23 38.306 108.475 37.5766L112.27 38.6707C111.658 40.008 110.679 41.1021 109.21 41.8315C107.985 42.5609 106.271 42.9257 104.312 42.9257ZM108.842 32.7139C108.72 31.4982 108.23 30.4041 107.373 29.6747C106.516 28.9453 105.537 28.5806 104.312 28.5806C103.7 28.5806 103.21 28.7021 102.721 28.9453C102.231 29.1884 101.741 29.4315 101.374 29.7962C101.007 30.1609 100.639 30.6472 100.394 31.1335C100.15 31.7413 100.027 32.2276 99.9047 32.8355H108.842V32.7139ZM115.943 45.9649C116.311 46.0864 116.678 46.208 117.045 46.208C117.413 46.3296 117.657 46.3296 117.902 46.3296C118.147 46.3296 118.514 46.208 118.637 46.208C118.882 46.0864 119.127 45.8433 119.249 45.6002C119.494 45.357 119.616 44.9923 119.861 44.506C120.106 44.0198 120.228 43.4119 120.473 42.6825L113.74 25.5413H118.27L122.922 38.7923L127.085 25.5413H131.247L124.024 45.9649C123.657 47.1806 122.922 48.1531 121.82 48.8825C120.841 49.6119 119.616 49.9766 118.025 49.9766C117.657 49.9766 117.29 49.9766 116.923 49.8551C116.555 49.7335 116.188 49.7335 115.821 49.6119V45.9649H115.943ZM137.859 42.9257C137.002 42.9257 136.267 42.8041 135.532 42.5609C134.798 42.3178 134.186 41.9531 133.696 41.4668C133.084 40.9806 132.717 40.3727 132.472 39.7649C132.227 39.157 131.982 38.4276 131.982 37.5766C131.982 36.7256 132.227 35.9962 132.594 35.3884C132.961 34.659 133.451 34.1727 134.063 33.6864C134.675 33.2002 135.532 32.8355 136.389 32.5923C137.247 32.3492 138.226 32.2276 139.328 32.2276C140.062 32.2276 140.797 32.2276 141.532 32.3492C142.266 32.4707 142.878 32.7139 143.491 32.957V31.9845C143.491 30.8904 143.123 30.0394 142.511 29.31C141.899 28.7021 140.919 28.459 139.695 28.459C138.716 28.459 137.859 28.5806 137.002 28.9453C136.145 29.31 135.288 29.7962 134.308 30.4041L132.961 27.608C135.165 26.1492 137.491 25.4198 140.062 25.4198C142.511 25.4198 144.47 26.0276 145.817 27.2433C147.164 28.459 147.898 30.1609 147.898 32.4707V37.8198C147.898 38.306 148.021 38.6707 148.143 38.7923C148.265 38.9139 148.51 39.0355 149 39.157V42.9257C148.265 43.0472 147.653 43.1688 147.041 43.1688C146.184 43.1688 145.572 43.0472 145.082 42.5609C144.592 42.1962 144.348 41.71 144.225 41.1021L144.103 40.1296C143.368 41.1021 142.389 41.8315 141.287 42.4394C140.307 42.6825 139.083 42.9257 137.859 42.9257ZM139.083 39.7649C139.818 39.7649 140.552 39.6433 141.164 39.4002C141.899 39.157 142.389 38.7923 142.756 38.306C143.246 37.9413 143.491 37.4551 143.491 37.0904V35.1453C143.001 35.0237 142.389 34.7806 141.777 34.659C141.164 34.5374 140.552 34.4158 140.062 34.4158C138.961 34.4158 137.981 34.659 137.247 35.2668C136.512 35.7531 136.145 36.3609 136.145 37.2119C136.145 37.9413 136.512 38.5492 137.002 39.0355C137.614 39.5217 138.348 39.7649 139.083 39.7649Z" fill="#CD4A42"/>
</svg>
