<svg width="144" height="107" viewBox="0 0 144 107" fill="none" xmlns="http://www.w3.org/2000/svg">
<path fill-rule="evenodd" clip-rule="evenodd" d="M0 104.749C0 105.992 0.90268 106.699 1.92045 106.699C2.93597 106.699 3.69873 105.992 3.69873 104.749V93.8379L13.0415 105.712C13.8606 106.475 14.3391 106.701 15.3275 106.701C16.0609 106.475 16.8237 105.994 16.8237 104.751V88.8367C16.8237 87.9033 15.8353 86.8864 14.8197 86.8864C13.8606 86.8864 13.0415 87.9033 13.0415 88.8367V99.8041L3.69873 88.1C2.93597 87.3655 2.7103 87.1101 1.69478 87.1101C0.22567 87.1101 0 88.1 0 89.1169V104.749ZM36.1027 100.227C37.0347 101.47 38.3052 101.47 39.3207 100.227L44.0056 94.2899V104.749C44.0056 105.992 44.7955 106.699 45.8133 106.699C46.7159 106.699 47.5058 105.992 47.5058 104.749V88.8344C47.5058 86.8841 45.2197 86.4321 44.2877 87.5915L37.8516 96.299L31.6412 87.9033C31.1605 87.3655 30.6821 86.8864 29.8629 86.8864C29.4116 86.8864 28.1681 87.3677 28.1681 88.8367V104.751C28.1681 105.994 28.958 106.701 29.8629 106.701C30.8784 106.701 31.8962 105.994 31.8962 104.751V94.2922L36.1027 100.229V100.227ZM63.7653 106.701C66.532 106.701 66.3334 102.997 63.7653 102.997H55.156V98.7578H62.2691C64.7808 98.7578 64.7808 95.0538 62.2691 95.0538H55.156V90.8141H63.2846C65.8257 90.8141 65.8821 87.1395 63.2846 87.1395H53.152C52.1636 87.1395 51.4008 87.874 51.4008 88.8932V104.95C51.4008 105.94 52.1636 106.704 53.152 106.704H63.7653V106.701ZM77.2017 90.5881C85.1611 90.5881 84.8226 103.253 77.2017 103.253H72.5145V90.5881H77.2017ZM77.4567 106.701C89.8212 106.701 90.1032 87.1395 77.2017 87.1395H70.7363C69.8042 87.1395 68.7887 87.874 68.7887 88.8932V104.95C68.7887 106.193 69.8042 106.704 70.7363 106.704H77.4544L77.4567 106.701ZM110.145 96.8075C110.145 90.109 104.979 86.6875 100.039 86.4321C94.8175 86.4321 89.3969 89.8537 89.3969 96.8075C89.3969 103.734 94.8175 107.21 100.039 106.984C104.979 106.984 110.145 103.506 110.145 96.8075ZM106.446 96.8075C106.446 101.246 102.973 103.508 99.7281 103.508C96.5664 103.508 93.1227 101.246 93.1227 96.8075C93.1227 92.3419 96.5664 90.109 99.7281 90.109C102.973 90.109 106.446 92.3419 106.446 96.8075ZM123.694 105.429L130.893 89.6277C131.852 87.2819 128.578 85.9236 127.449 88.0728L124.938 93.7543L121.749 101.217L118.502 93.7543L115.99 88.0728C114.749 85.727 111.418 87.5644 112.517 89.7972L119.968 105.429C121.04 107.635 123.044 107.21 123.694 105.429Z" fill="#2B2A29"/>
<path fill-rule="evenodd" clip-rule="evenodd" d="M19.7514 88.1255C18.781 89.8544 21.6876 91.3618 22.6038 89.7323L25.0253 85.4249C25.8851 83.8972 23.0461 82.2633 22.1728 83.8181L19.7514 88.1255Z" fill="#2B2A29"/>
<path fill-rule="evenodd" clip-rule="evenodd" d="M112.413 0C100.604 0 88.7965 0.0971771 76.9872 0.0542384C38.1426 -0.0903973 37.8086 40.6946 10.1934 55.018C21.0097 55.018 31.8283 55.018 42.6447 55.018C91.6219 55.018 84.3553 11.3019 112.413 0.00225993V0Z" fill="#C22D22"/>
<path fill-rule="evenodd" clip-rule="evenodd" d="M144 13.9746C135.194 13.9746 112.149 14.0288 96.1012 14.0379C85.9935 28.6732 80.5593 48.425 56.2163 53.6907C80.5571 48.425 85.9912 28.6732 96.1012 14.0379C90.6287 14.0401 85.9664 14.0401 82.9627 14.0288C53.4474 13.9181 46.165 37.4395 32.2547 55.0263C27.8586 60.5857 22.8014 65.553 16.1689 68.9927C26.9853 68.9927 63.4152 68.9927 74.2316 68.9927C123.209 68.9927 115.942 25.2765 144 13.9746Z" fill="url(#paint0_linear)"/>
<path fill-rule="evenodd" clip-rule="evenodd" d="M32.252 55.0051H42.6441C78.9024 55.0051 84.3388 31.0476 96.0985 14.0168C90.626 14.019 85.9636 14.019 82.96 14.0077C53.4446 13.897 46.1622 37.4183 32.252 55.0051Z" fill="url(#paint1_linear)"/>
<defs>
<linearGradient id="paint0_linear" x1="71.0203" y1="13.3644" x2="71.0203" y2="68.9927" gradientUnits="userSpaceOnUse">
<stop stop-color="#FFF167"/>
<stop offset="1" stop-color="#FBBA00"/>
</linearGradient>
<linearGradient id="paint1_linear" x1="59.6483" y1="13.5512" x2="59.6483" y2="55.0051" gradientUnits="userSpaceOnUse">
<stop stop-color="#E6A51E"/>
<stop offset="0.290196" stop-color="#E28E1D"/>
<stop offset="1" stop-color="#DD761C"/>
</linearGradient>
</defs>
</svg>
