<svg width="66" height="49" viewBox="0 0 66 49" fill="none" xmlns="http://www.w3.org/2000/svg">
<path fill-rule="evenodd" clip-rule="evenodd" d="M0 47.9691C0 48.5383 0.413728 48.8622 0.880207 48.8622C1.34565 48.8622 1.69525 48.5383 1.69525 47.9691V42.9725L5.97734 48.41C6.3528 48.7598 6.57207 48.8633 7.02511 48.8633C7.36126 48.7598 7.71086 48.5393 7.71086 47.9701V40.6822C7.71086 40.2548 7.25783 39.7891 6.79238 39.7891C6.3528 39.7891 5.97734 40.2548 5.97734 40.6822V45.7047L1.69525 40.3448C1.34565 40.0085 1.24222 39.8915 0.776775 39.8915C0.103432 39.8915 0 40.3448 0 40.8105V47.9691ZM16.5471 45.8982C16.9742 46.4674 17.5566 46.4674 18.022 45.8982L20.1693 43.1795V47.9691C20.1693 48.5383 20.5313 48.8622 20.9977 48.8622C21.4115 48.8622 21.7735 48.5383 21.7735 47.9691V40.6812C21.7735 39.788 20.7257 39.5811 20.2985 40.112L17.3487 44.0995L14.5022 40.2548C14.2819 40.0085 14.0626 39.7891 13.6872 39.7891C13.4803 39.7891 12.9104 40.0095 12.9104 40.6822V47.9701C12.9104 48.5393 13.2724 48.8633 13.6872 48.8633C14.1526 48.8633 14.6191 48.5393 14.6191 47.9701V43.1805L16.5471 45.8993V45.8982ZM29.2258 48.8633C30.4938 48.8633 30.4028 47.167 29.2258 47.167H25.2798V45.2255H28.54C29.6912 45.2255 29.6912 43.5293 28.54 43.5293H25.2798V41.5878H29.0055C30.1701 41.5878 30.196 39.905 29.0055 39.905H24.3614C23.9083 39.905 23.5587 40.2413 23.5587 40.7081V48.0612C23.5587 48.5145 23.9083 48.8643 24.3614 48.8643H29.2258V48.8633ZM35.3841 41.4843C39.0322 41.4843 38.877 47.284 35.3841 47.284H33.2358V41.4843H35.3841ZM35.501 48.8633C41.168 48.8633 41.2973 39.905 35.3841 39.905H32.4208C31.9936 39.905 31.5282 40.2413 31.5282 40.7081V48.0612C31.5282 48.6304 31.9936 48.8643 32.4208 48.8643H35.5L35.501 48.8633ZM50.4831 44.3324C50.4831 41.2649 48.1156 39.698 45.8514 39.5811C43.458 39.5811 40.9736 41.1479 40.9736 44.3324C40.9736 47.5044 43.458 49.0961 45.8514 48.9926C48.1156 48.9926 50.4831 47.3999 50.4831 44.3324ZM48.7879 44.3324C48.7879 46.365 47.1961 47.4009 45.7087 47.4009C44.2596 47.4009 42.6812 46.365 42.6812 44.3324C42.6812 42.2874 44.2596 41.2649 45.7087 41.2649C47.1961 41.2649 48.7879 42.2874 48.7879 44.3324ZM56.6932 48.2806L59.9927 41.0444C60.4323 39.9702 58.9315 39.3482 58.4143 40.3324L57.2631 42.9342L55.8016 46.3515L54.3132 42.9342L53.162 40.3324C52.5931 39.2582 51.0665 40.0995 51.5702 41.1221L54.9855 48.2806C55.4768 49.2907 56.3953 49.0961 56.6932 48.2806Z" fill="#2B2A29"/>
<path fill-rule="evenodd" clip-rule="evenodd" d="M9.05258 40.3566C8.60782 41.1484 9.94003 41.8386 10.36 41.0925L11.4698 39.1199C11.8639 38.4203 10.5627 37.672 10.1624 38.3841L9.05258 40.3566Z" fill="#2B2A29"/>
<path fill-rule="evenodd" clip-rule="evenodd" d="M51.5225 0C46.1099 0 40.6983 0.0445016 35.2857 0.0248381C17.4819 -0.0413969 17.3289 18.6358 4.67188 25.1952C9.62937 25.1952 14.5879 25.1952 19.5454 25.1952C41.9933 25.1952 38.6628 5.17564 51.5225 0.00103492V0Z" fill="#C22D22"/>
<path fill-rule="evenodd" clip-rule="evenodd" d="M65.9997 6.3999C61.9638 6.3999 51.4013 6.42474 44.0463 6.42888C39.4136 13.131 36.9229 22.1763 25.7657 24.5876C36.9219 22.1763 39.4125 13.131 44.0463 6.42888C41.5381 6.42992 39.4012 6.42992 38.0245 6.42474C24.4966 6.37403 21.1588 17.1455 14.7833 25.1993C12.7684 27.7452 10.4505 30.0199 7.41064 31.5951C12.3681 31.5951 29.0652 31.5951 34.0227 31.5951C56.4705 31.5951 53.14 11.5755 65.9997 6.3999Z" fill="url(#paint0_linear)"/>
<path fill-rule="evenodd" clip-rule="evenodd" d="M14.7822 25.1893H19.5453C36.1637 25.1893 38.6554 14.218 44.0452 6.41887C41.537 6.4199 39.4001 6.4199 38.0234 6.41473C24.4955 6.36402 21.1578 17.1355 14.7822 25.1893Z" fill="url(#paint1_linear)"/>
<defs>
<linearGradient id="paint0_linear" x1="32.5508" y1="6.12047" x2="32.5508" y2="31.5951" gradientUnits="userSpaceOnUse">
<stop stop-color="#FFF167"/>
<stop offset="1" stop-color="#FBBA00"/>
</linearGradient>
<linearGradient id="paint1_linear" x1="27.3389" y1="6.20567" x2="27.3389" y2="25.1893" gradientUnits="userSpaceOnUse">
<stop stop-color="#E6A51E"/>
<stop offset="0.290196" stop-color="#E28E1D"/>
<stop offset="1" stop-color="#DD761C"/>
</linearGradient>
</defs>
</svg>
