<svg width="161" height="107" viewBox="0 0 161 107" fill="none" xmlns="http://www.w3.org/2000/svg">
<g clip-path="url(#clip0)">
<path d="M46.8201 57.2482C46.868 59.8516 46.8947 64.5415 47.2404 69.0521C47.561 73.5816 48.5003 79.8092 49.174 81.7861C51.3307 87.4776 60.1263 85.8469 64.0876 84.1923C62.6012 79.6782 61.0992 71.3586 60.4979 64.7837C59.9214 58.2055 59.7795 51.494 59.7181 46.5242C59.6727 45.0593 59.5437 43.7567 59.3301 42.5729C58.4209 37.9243 55.0824 37.1902 50.9766 37.5481C48.5434 37.7684 47.045 38.1333 44.701 39.2631C45.4519 40.9395 45.5187 41.9383 43.9081 45.9035C40.9449 53.1079 38.1028 60.4086 35.7566 67.8662C34.3682 60.8956 33.6712 50.8114 31.3644 44.4818C29.9611 40.6662 26.7123 39.8888 22.9997 40.1988C20.4264 40.4239 18.3617 41.0387 15.9271 42.2618C16.2581 42.8898 16.9361 44.5414 16.4087 46.2362C14.3054 52.7299 9.93661 61.0976 6.55873 69.7518C3.24585 78.3058 0.993648 87.1698 1.90878 94.4895C2.62485 100.579 9.15544 104.927 16.9975 102.308C15.5137 95.7528 15.4789 88.3655 16.2609 80.959C17.0198 73.5519 18.7995 66.104 20.4252 59.3275C21.1852 64.8119 22.9616 74.914 24.0625 79.6781C25.1622 84.4207 25.8206 88.6981 30.0444 89.9003C33.5778 90.8873 37.4835 90.132 40.8534 88.4716C38.2552 81.583 43.8759 64.619 46.82 57.2481L46.8201 57.2482Z" fill="#222B7B"/>
<path d="M92.11 75.0656C89.7546 75.9462 82.649 76.5609 78.4522 75.9903C78.4304 75.9443 77.8645 66.8892 77.8305 66.3054C80.8522 66.308 84.4317 67.4195 87.2698 66.2967C89.8106 65.3082 89.7436 61.7265 89.3084 59.4121C85.5837 60.4587 81.5105 60.2158 77.628 60.3504C77.5902 59.5351 77.3116 54.4394 76.8628 51.3803C77.884 51.3184 82.708 51.979 85.0554 51.9369C90.6598 51.8311 90.5336 48.8759 89.9232 44.7676C88.2596 45.25 86.1547 45.7177 79.5437 45.534C74.1947 45.392 67.8284 44.4954 62.8701 46.5967C65.2386 49.1362 65.1319 55.9881 65.1611 61.3814C65.1911 66.7754 65.9544 80.6433 67.7809 83.7682C72.9772 83.1154 84.9803 83.1882 88.3038 83.2475C89.4478 83.2577 90.2799 83.0535 90.8508 82.6287C92.8043 81.2021 92.313 77.2127 92.1101 75.0656L92.11 75.0656Z" fill="#222B7B"/>
<path d="M107.273 49.638C106.109 43.7166 97.9544 44.0225 93.314 44.9144C95.7418 55.99 96.7552 66.7264 98.6471 78.1046C99.7813 84.8285 106.926 86.3369 112.612 85.2855C111.543 83.5955 111.738 82.0994 112.042 81.5011C115.661 73.747 121.704 64.8281 125.741 57.3012C127.408 54.1696 128.65 51.6811 128.843 50.2363C129.058 48.0895 127.852 46.9744 125.945 46.4986C123.849 45.9468 122.099 45.9577 119.98 46.2985C120.575 49.1141 119.957 52.196 118.992 55.0765C117.107 60.7644 111.835 68.1283 109.488 73.6639C108.441 66.3409 108.37 56.3101 107.273 49.6379L107.273 49.638Z" fill="#222B7B"/>
<path d="M130.777 69.4291C130.879 69.2066 137.56 58.161 137.56 58.161L139.109 67.0744C136.251 66.9592 132.766 68.2532 130.777 69.4291ZM142.275 91.2546C143.251 98.3582 151.153 98.0849 156.457 97.0584L152.196 76.1101C155.2 73.3588 158.045 70.3278 159.297 66.2228C156.752 67.6351 153.271 68.2532 150.338 68.3645L147.563 54.6941C146.145 47.698 143.808 46.4189 138.245 46.2611C137.428 46.2371 136.582 46.2733 135.763 46.3688C134.919 46.4314 134.042 46.5547 133.089 46.7362C134.222 48.7882 133.913 50.5917 133.552 51.2924C128.981 60.614 124.936 65.7617 119.956 74.7682C117.852 78.5566 116.273 81.8167 115.993 83.5319C115.636 86.0893 116.92 87.4448 119.038 88.0355C121.371 88.6855 123.376 88.67 125.79 88.2755C125.382 85.5499 125.904 82.3246 126.769 79.477C130.175 79.3921 135.679 80.397 139.367 80.4556L140.846 80.4435C141.033 82.3561 142.08 89.6322 142.275 91.2546H142.275Z" fill="#222B7B"/>
<path fill-rule="evenodd" clip-rule="evenodd" d="M48.0435 52.7677C48.1235 57.1985 48.1196 77.2095 50.7912 80.6792C50.7419 80.5621 50.6899 80.4234 50.6339 80.284C48.0035 73.0949 49.7383 56.5807 49.6081 48.7681L48.0435 52.7677V52.7677Z" fill="url(#paint0_linear)"/>
<path d="M141.944 44.6605L142.995 39.013C143.009 38.8827 143.086 38.8223 143.232 38.8355L144.424 38.9481C144.556 38.9606 144.612 39.0346 144.602 39.1652L143.551 44.8124C143.537 44.9587 143.448 45.0232 143.29 45.0082L142.11 44.8969C141.986 44.8849 141.931 44.8066 141.944 44.6605V44.6605ZM140.175 42.1456C140.162 42.2689 140.142 42.3889 140.112 42.4995C140.084 42.6136 140.044 42.7213 139.99 42.8292C139.938 42.9343 139.879 43.0297 139.817 43.1121C139.756 43.1919 139.681 43.2754 139.595 43.3573C139.315 43.6256 138.968 43.739 138.556 43.7006C138.358 43.6812 138.225 43.6321 138.159 43.5542C138.127 43.5128 138.105 43.4572 138.089 43.3895C138.077 43.3229 138.074 43.234 138.086 43.1289C138.137 42.8852 138.238 42.6517 138.383 42.4289L138.523 42.2433L138.853 41.9067C139.029 41.7419 139.201 41.6087 139.362 41.5139C139.495 41.4441 139.633 41.3991 139.782 41.3807C139.922 41.3943 140.034 41.4503 140.122 41.5527C140.183 41.6592 140.208 41.7953 140.192 41.9582L140.175 42.1456ZM138.919 38.6477C138.924 38.5881 138.92 38.5328 138.9 38.4786C138.886 38.4738 138.873 38.4695 138.87 38.4647L138.762 38.4132L137.562 38.2997C137.409 38.2846 137.326 38.3502 137.313 38.4966L136.694 41.7946L136.605 42.3889C136.535 43.137 136.647 43.6984 136.944 44.0757C137.24 44.4511 137.788 44.6774 138.582 44.7524C139.242 44.8161 139.853 44.6301 140.424 44.1986C141.034 43.7514 141.418 43.118 141.57 42.2978L141.616 42.0289L141.638 41.7991C141.688 41.2728 141.626 40.853 141.449 40.542C141.364 40.3908 141.249 40.2692 141.099 40.1803C140.952 40.0907 140.77 40.0361 140.553 40.0172C140.195 39.9817 139.79 40.135 139.341 40.4775C138.959 40.7574 138.642 41.1055 138.383 41.5224L138.919 38.6477L138.919 38.6477ZM131.83 43.0196L132.098 43.1111L132.431 43.1575C133.114 43.2105 133.647 42.9391 134.033 42.3446C134.336 41.8667 134.519 41.23 134.578 40.4354L134.597 40.2162C134.604 40.1269 134.604 40.0541 134.598 39.9944C134.591 39.9381 134.573 39.874 134.537 39.8027C134.505 39.6929 134.419 39.6325 134.287 39.6219C134.21 39.6157 134.132 39.627 134.055 39.6552C133.976 39.683 133.896 39.7291 133.811 39.7954C133.766 39.8174 133.646 39.9406 133.445 40.1628C133.239 40.3842 133.059 40.6053 132.898 40.8223C132.736 41.0389 132.581 41.2713 132.427 41.5165C132.396 41.5769 132.353 41.6542 132.303 41.7526C132.251 41.8502 132.179 42.0061 132.089 42.2173C131.995 42.4574 131.908 42.7238 131.83 43.0196ZM132.268 40.456C132.473 39.9875 132.689 39.5886 132.913 39.2567C133.14 38.928 133.378 38.6631 133.631 38.4688C134.03 38.1559 134.481 38.0186 134.982 38.0566C135.505 38.097 135.861 38.3249 136.054 38.7414C136.13 38.9225 136.182 39.123 136.211 39.3448C136.24 39.5656 136.246 39.8129 136.225 40.0885L136.205 40.3494L136.164 40.5998C136.078 41.1132 135.948 41.5761 135.774 41.9889C135.6 42.4036 135.377 42.7864 135.099 43.1406C134.771 43.559 134.408 43.862 134.013 44.0563C133.623 44.2496 133.197 44.3286 132.741 44.2942C132.507 44.2755 132.327 44.2455 132.201 44.2049L131.985 44.1438C131.892 44.1167 131.787 44.0574 131.675 43.9667L131.274 46.3267C131.242 46.4709 131.159 46.538 131.028 46.528L129.846 46.4366C129.715 46.4271 129.655 46.348 129.666 46.2027L131.042 38.0929C131.051 37.9545 131.131 37.8894 131.278 37.8997L132.459 37.9907C132.597 38.0017 132.66 38.0783 132.65 38.2166L132.268 40.456V40.456ZM128.663 38.8442L128.321 38.71L127.932 38.6316C127.344 38.5873 126.858 38.8501 126.473 39.4224C126.4 39.5362 126.331 39.6563 126.269 39.7811C126.205 39.907 126.143 40.0545 126.08 40.2199C125.972 40.5101 125.903 40.8233 125.876 41.1626L125.87 41.2494C125.864 41.3236 125.856 41.3742 125.838 41.4023L125.827 41.5575C125.812 41.7339 125.82 41.8813 125.857 42.0003C125.894 42.0969 125.988 42.1496 126.128 42.1599C126.48 42.1881 126.982 41.7247 127.632 40.7714C128.175 39.981 128.518 39.3376 128.663 38.8442H128.663ZM128.098 41.3562C127.846 42.0215 127.515 42.5683 127.102 42.9987C126.584 43.5341 126.009 43.776 125.379 43.7273C124.921 43.6922 124.592 43.4817 124.386 43.0967C124.345 43.0174 124.309 42.9291 124.273 42.8306C124.241 42.7315 124.216 42.6236 124.198 42.5043C124.182 42.3875 124.175 42.2686 124.169 42.1493C124.167 42.0325 124.171 41.9091 124.182 41.7793L124.195 41.5659L124.236 41.3325C124.318 40.8259 124.444 40.3604 124.609 39.9359C124.777 39.5113 124.988 39.1198 125.245 38.7589C125.892 37.8411 126.692 37.4191 127.643 37.4916C127.997 37.5183 128.388 37.6486 128.816 37.8781C128.825 37.7727 128.88 37.7174 128.982 37.7141L130.16 37.8052C130.291 37.8148 130.353 37.8931 130.342 38.0373L129.392 43.6907C129.381 43.8389 129.293 43.9055 129.134 43.893L127.91 43.7994C127.779 43.7892 127.718 43.7104 127.73 43.5659L128.098 41.3562L128.098 41.3562ZM116.84 39.5417C117.093 38.8878 117.423 38.3172 117.833 37.8342C118.088 37.537 118.358 37.3185 118.633 37.1791C118.911 37.04 119.206 36.9803 119.52 36.9994C119.874 37.0203 120.132 37.1494 120.291 37.384C120.369 37.4993 120.428 37.6336 120.467 37.7888C120.507 37.9432 120.522 38.1164 120.51 38.3099L120.475 38.5503L120.29 39.7467C120.338 39.649 120.387 39.5491 120.435 39.4495C120.502 39.3178 120.58 39.1681 120.678 39.0023C120.737 38.8933 120.783 38.8051 120.819 38.7359C120.857 38.6664 120.89 38.6166 120.915 38.5855C121.178 38.143 121.459 37.8089 121.759 37.5835C122.133 37.3039 122.541 37.1787 122.991 37.205C123.344 37.2256 123.604 37.365 123.771 37.6223C123.912 37.8374 123.97 38.1397 123.95 38.5248L123.91 38.796L123.235 43.279C123.226 43.425 123.145 43.4939 122.983 43.4832L121.756 43.4111C121.626 43.4041 121.564 43.3262 121.573 43.1806L122.106 39.5268L122.158 39.2014C122.167 39.0518 122.093 38.9649 121.932 38.9423C121.78 38.9339 121.615 39.0192 121.445 39.2032L121.087 39.6863C120.887 39.9717 120.708 40.2521 120.55 40.5269C120.394 40.8047 120.261 41.0652 120.155 41.3123C119.955 41.8133 119.839 42.3788 119.8 43.0107C119.788 43.1988 119.704 43.2896 119.542 43.28L118.318 43.2076C118.186 43.1988 118.124 43.1209 118.132 42.9753L118.679 39.3017L118.719 38.9975C118.706 38.8464 118.628 38.7601 118.482 38.7373C118.31 38.7278 118.122 38.8339 117.927 39.0583L117.528 39.6315L116.828 40.8201C116.563 41.3555 116.408 42.0402 116.357 42.8702C116.35 43.017 116.264 43.0854 116.104 43.0755L114.921 43.0052C114.796 42.9983 114.739 42.9214 114.749 42.7747L115.598 37.1055C115.607 36.9664 115.687 36.8998 115.832 36.9086L117.025 36.9789C117.156 36.9865 117.218 37.0624 117.21 37.2014L116.84 39.5417L116.84 39.5417ZM110.872 39.7211L110.828 39.6332C110.845 39.5549 110.878 39.4942 110.927 39.4492L113.326 37.0012C113.395 36.9368 113.483 36.9061 113.593 36.9094L115.006 36.9686C115.076 36.9727 115.117 36.9957 115.138 37.0389C115.134 37.0898 115.097 37.1542 115.028 37.234L112.588 39.6157L114.126 42.7608C114.132 42.7717 114.142 42.797 114.152 42.8351C114.163 42.8713 114.171 42.9058 114.175 42.9346C114.172 43.0316 114.106 43.077 113.973 43.0715L112.469 43.0082C112.354 43.0034 112.278 42.9643 112.244 42.8918L110.872 39.7211V39.7211ZM108.73 42.6313L109.483 36.9573C109.51 36.8454 109.581 36.7747 109.699 36.7465L110.895 36.797C111.026 36.8032 111.087 36.8787 111.084 37.0246L110.333 42.6993C110.326 42.845 110.244 42.9149 110.09 42.9097L108.909 42.8596C108.784 42.8548 108.723 42.7784 108.73 42.6313ZM105.459 39.1845C105.897 39.2032 106.293 39.1556 106.65 39.0404C107.128 38.883 107.372 38.6162 107.389 38.2451C107.402 37.87 107.222 37.6738 106.842 37.6589C106.473 37.6435 106.151 37.8023 105.884 38.1387C105.72 38.3483 105.577 38.6949 105.459 39.1845ZM105.312 40.2678C105.298 40.673 105.403 41.0144 105.634 41.2966C105.868 41.5392 106.207 41.6691 106.649 41.687C106.772 41.6921 106.887 41.6904 106.991 41.6801C107.089 41.6684 107.216 41.6475 107.37 41.6102L108.147 41.3749C108.237 41.3789 108.279 41.4312 108.273 41.5363L108.158 42.3769C108.148 42.598 107.86 42.7546 107.291 42.8461L106.709 42.8965L106.071 42.9072C105.324 42.8757 104.744 42.6598 104.331 42.2645C103.917 41.8674 103.724 41.2954 103.756 40.5449L103.764 40.3568L103.794 40.1489C103.859 39.6585 103.971 39.2083 104.138 38.801C104.303 38.393 104.524 38.0175 104.798 37.675C105.417 36.8888 106.207 36.5167 107.167 36.5558C107.42 36.5668 107.648 36.6013 107.849 36.6609C108.049 36.7175 108.227 36.8061 108.377 36.9236C108.708 37.1813 108.867 37.53 108.848 37.9754L108.839 38.1492C108.824 38.5218 108.701 38.8633 108.471 39.1718C108.356 39.3174 108.223 39.4488 108.072 39.5685C107.921 39.6874 107.742 39.7928 107.538 39.8887C107.23 40.0259 106.887 40.1288 106.509 40.1961C106.134 40.2627 105.734 40.2857 105.312 40.2678V40.2678ZM103.683 36.7798C103.686 36.633 103.618 36.5594 103.479 36.5551L102.349 36.5269C102.265 36.5247 102.193 36.5515 102.126 36.6016C102.118 36.6173 102.112 36.633 102.11 36.6499C102.095 36.6938 102.081 36.7297 102.07 36.7623L101.827 38.9244L99.901 38.876L100.153 36.6938C100.153 36.6327 100.144 36.5774 100.123 36.5266C100.104 36.5225 100.09 36.5182 100.087 36.5141L99.9804 36.4687L98.7859 36.4406C98.6334 36.4369 98.5551 36.5082 98.5508 36.6547L97.8939 42.3417C97.8899 42.4874 97.9505 42.5616 98.0826 42.5642L99.2683 42.5942C99.4153 42.5972 99.4914 42.5273 99.4929 42.3802L99.7598 40.0581L101.692 40.1053L101.427 42.4267C101.428 42.4943 101.436 42.5503 101.458 42.5942L101.613 42.6514L102.804 42.6802C102.951 42.6839 103.028 42.6129 103.03 42.4662L103.683 36.7798ZM92.3219 40.0127C92.1998 40.3758 92.0637 40.7081 91.9097 41.0053C91.7554 41.3021 91.5772 41.5721 91.3761 41.8126C90.8674 42.4274 90.2866 42.7326 89.6319 42.7286C89.3035 42.7257 89.0427 42.6221 88.8518 42.4171C88.6609 42.2126 88.5666 41.9359 88.5695 41.5897L88.5929 41.3697L89.053 36.6725C89.0555 36.5254 89.1316 36.4537 89.2848 36.4533L90.5126 36.4636C90.6447 36.4636 90.7065 36.5364 90.7079 36.6825L90.347 40.3794L90.3279 40.4819L90.3436 40.853C90.3436 40.9054 90.4022 40.932 90.5232 40.9332C90.6611 40.9349 90.844 40.8245 91.0769 40.6045C91.1822 40.4915 91.2913 40.3513 91.4039 40.1844C91.5199 40.016 91.6453 39.8119 91.7876 39.5699C92.1094 39.0176 92.3315 38.5464 92.4555 38.1543C92.5161 37.9604 92.5608 37.7466 92.5958 37.511C92.6281 37.2754 92.6463 37.0229 92.6478 36.7501C92.6489 36.5683 92.7289 36.4782 92.8862 36.4794L94.0595 36.487C94.1927 36.4881 94.2585 36.5617 94.2567 36.7084L93.696 42.4142C93.6978 42.5609 93.6151 42.633 93.4546 42.632L92.2798 42.6246C92.1555 42.6236 92.0945 42.55 92.0945 42.4028L92.3219 40.0127L92.3219 40.0127ZM82.8069 40.1266C82.6968 40.4936 82.5732 40.8311 82.4288 41.1325C82.2857 41.436 82.1175 41.7115 81.9237 41.9582C81.4376 42.5913 80.8689 42.9163 80.2157 42.935C79.8861 42.9441 79.6225 42.8479 79.4221 42.6507C79.2246 42.4533 79.121 42.1793 79.1111 41.8334L79.1262 41.6131L79.4238 36.902C79.418 36.7553 79.493 36.6806 79.6469 36.6758L80.8747 36.6418C81.0057 36.6378 81.0744 36.7091 81.0777 36.8552L80.8448 40.5624L80.8309 40.6652L80.858 41.0349C80.8609 41.0872 80.9209 41.1132 81.0411 41.1095C81.1787 41.1062 81.3575 40.9885 81.5831 40.7612C81.686 40.6459 81.7883 40.5013 81.8967 40.3293C82.0023 40.158 82.1251 39.9501 82.2584 39.7031C82.5605 39.1399 82.7656 38.6602 82.8749 38.2642C82.9291 38.0683 82.966 37.8539 82.992 37.6168C83.018 37.3793 83.0271 37.1274 83.018 36.8541C83.0128 36.6725 83.0911 36.5793 83.248 36.5749L84.4206 36.5423C84.5515 36.539 84.6221 36.61 84.625 36.756L84.2648 42.4783C84.2698 42.625 84.1887 42.7 84.0282 42.7051L82.8588 42.7381C82.7324 42.7414 82.6673 42.6696 82.6635 42.5233L82.8069 40.1266L82.8069 40.1266ZM75.1492 39.776L75.0987 39.6918C75.1067 39.6128 75.1363 39.5498 75.1854 39.5015L77.4065 36.8918C77.4679 36.8226 77.5556 36.7853 77.6654 36.7824L79.0801 36.7421C79.1481 36.7403 79.1923 36.7608 79.2162 36.8032C79.2158 36.8541 79.1851 36.9211 79.1181 37.0052L76.8535 39.5516L78.6043 42.5818C78.6112 42.5924 78.6229 42.6155 78.6346 42.6546C78.6496 42.6898 78.6591 42.7235 78.669 42.7527C78.6704 42.849 78.6068 42.8988 78.4748 42.9013L76.9705 42.9448C76.8546 42.9482 76.7763 42.9134 76.7368 42.8428L75.1492 39.776L75.1492 39.776ZM73.2144 42.8303L73.5699 37.1161C73.5879 37.0023 73.6544 36.9273 73.771 36.8914L74.9663 36.8581C75.098 36.8545 75.1655 36.9251 75.1693 37.0711L74.8152 42.7849C74.8207 42.931 74.7458 43.0074 74.5914 43.0112L73.4082 43.0429C73.282 43.0466 73.2185 42.9763 73.2144 42.8303V42.8303ZM70.946 39.8718L70.9326 39.65L70.9234 39.4909C70.8978 39.088 70.817 38.7812 70.6831 38.5716C70.5087 38.3015 70.268 38.177 69.9601 38.1969C69.5434 38.2232 69.2381 38.5038 69.0443 39.0334C68.9488 39.3661 68.8764 39.8507 68.8321 40.487L68.8237 40.7066L68.8387 40.9397C68.8643 41.3595 68.9565 41.7031 69.1137 41.9692C69.2717 42.2177 69.5164 42.33 69.8423 42.3099C70.2436 42.2847 70.5431 42.027 70.7427 41.5381C70.8342 41.2604 70.9015 40.7047 70.946 39.8718V39.8718ZM72.6109 39.8799C72.5966 40.3746 72.5323 40.8201 72.4211 41.2153C72.3117 41.6116 72.1413 41.9732 71.9138 42.2989C71.4238 43.0352 70.7229 43.4312 69.8098 43.4894C69.03 43.5381 68.4068 43.3559 67.9474 42.9412C67.4873 42.5247 67.2309 41.926 67.182 41.1469L67.1688 40.9358L67.1772 40.7044C67.1673 40.5621 67.1629 40.4321 67.1629 40.3135C67.1603 40.1961 67.1677 40.0833 67.1834 39.9798C67.2024 39.7537 67.254 39.5183 67.3377 39.2772C67.4523 38.8789 67.6424 38.5002 67.9057 38.1397C68.3903 37.4433 69.079 37.066 69.9655 37.0097C70.7537 36.9606 71.3788 37.1484 71.8389 37.5743C72.2986 37.9995 72.5542 38.6257 72.605 39.4495L72.6226 39.7127L72.6109 39.8799L72.6109 39.8799ZM66.8443 42.1716L66.8498 43.0529C66.8652 43.2391 66.6224 43.4129 66.1213 43.5743L65.5533 43.7171L65.0347 43.8063C64.2744 43.8682 63.676 43.705 63.24 43.3164C62.8029 42.9288 62.5572 42.3996 62.5027 41.7302L62.4764 41.4085C62.4651 41.2662 62.4596 41.1388 62.4567 41.0232C62.4555 40.9097 62.4632 40.7948 62.4775 40.6832C62.4947 40.4728 62.5386 40.2309 62.6135 39.9571C62.7239 39.5531 62.905 39.1494 63.1555 38.745C63.6771 37.9047 64.4276 37.4433 65.4136 37.3643C65.7172 37.3394 66.0372 37.3566 66.3729 37.4148C66.7087 37.4718 66.8824 37.5729 66.8938 37.7185L66.9058 37.8572C66.9109 37.9249 66.9084 37.9875 66.8981 38.0475L66.8915 38.6115C66.8981 38.6975 66.8539 38.7443 66.7576 38.7527C66.6754 38.7596 66.5273 38.7176 66.3122 38.629C66.099 38.5409 65.8934 38.5045 65.7021 38.52C65.1752 38.562 64.7644 38.86 64.4667 39.4111C64.282 39.7807 64.1748 40.3169 64.1452 41.0239C64.1635 41.2552 64.1957 41.4513 64.2411 41.6175C64.2875 41.7833 64.3558 41.9304 64.4492 42.0585C64.6639 42.4058 64.9576 42.5661 65.3313 42.5357L65.6191 42.502C65.6741 42.4904 65.7318 42.4739 65.7885 42.4567C65.8484 42.4373 65.918 42.4061 66.0002 42.3648L66.7277 42.0468C66.7653 42.0442 66.8055 42.0849 66.8443 42.1716Z" fill="#DA251D"/>
<path fill-rule="evenodd" clip-rule="evenodd" d="M25.4344 97.9246C52.251 90.0176 94.9573 82.0227 137.056 94.6558C141.309 95.9327 139.697 101.107 135.649 99.8434C101.363 89.1272 64.2793 89.66 26.234 99.5422C24.8149 99.9111 24.2312 99.612 24.0885 99.3878C23.9335 99.1429 23.7718 98.4157 25.4344 97.9246L25.4344 97.9246Z" fill="#222B7B"/>
<path fill-rule="evenodd" clip-rule="evenodd" d="M95.9435 89.5333C97.0816 88.6949 98.4258 88.2891 99.9476 88.378C100.453 88.4094 100.954 88.4889 101.437 88.6363C101.94 88.7898 102.411 89.0308 102.82 89.3625C103.766 90.1258 104.209 91.197 104.138 92.4062L104.121 92.6986C104.067 93.6388 103.733 94.5036 103.15 95.2438C102.874 95.593 102.551 95.8982 102.198 96.1665C102.054 96.277 101.902 96.3795 101.747 96.475C102.631 96.6788 103.194 97.5158 103.057 98.4541L102.849 99.8511C102.64 101.265 101.242 101.821 99.9856 101.908L98.9637 101.978L97.8428 101.976C96.3535 101.974 94.9491 101.479 93.8759 100.426C93.8496 100.399 93.8215 100.373 93.7945 100.345C93.297 100.951 92.4558 101.268 91.6684 101.395L90.6487 101.559L89.7194 101.638C88.1803 101.768 86.7291 101.267 85.6466 100.166C85.4227 100.97 84.7381 101.507 83.8445 101.533L81.8663 101.588C81.5115 101.599 81.1853 101.515 80.9095 101.361C80.617 101.581 80.2497 101.718 79.8342 101.744L77.8853 101.866C77.2408 101.908 76.6809 101.64 76.3264 101.193C75.5383 101.855 74.5965 102.278 73.4965 102.349C72.5758 102.405 71.7083 102.148 71.0277 101.516C70.801 101.305 70.6068 101.07 70.4498 100.815L70.4378 101.942C70.4301 102.604 70.4023 103.219 70.1668 103.849C69.9265 104.489 69.5428 105.045 69.0508 105.518C68.0974 106.435 66.8755 106.864 65.5742 106.97C65.0575 107.011 64.5392 107.01 64.0212 106.969C62.8418 106.872 61.5939 106.301 61.61 104.921L61.6191 104.175L61.6246 103.551C61.6297 102.741 62.118 102.074 62.8762 101.795L63.119 101.704L63.924 101.69L64.5004 101.876C64.5095 101.879 64.5198 101.884 64.5304 101.888C64.5919 101.774 64.6094 101.626 64.612 101.504L64.7176 91.1315C64.7217 90.7304 64.8281 90.3659 65.0168 90.0629C64.748 89.7182 64.5977 89.2874 64.5603 88.8267C64.515 88.2664 64.489 87.5923 64.6898 87.0601C65.0475 86.1167 65.9071 85.6438 66.8791 85.5648L68.1878 85.4597C68.7429 85.4163 69.2974 85.4824 69.7634 85.7983C70.3617 86.1763 70.6602 86.8428 70.6729 87.5435L70.6887 88.4281C70.6982 88.9481 70.5336 89.4286 70.2454 89.8476C70.2867 89.911 70.3258 89.9779 70.3591 90.0464C70.6269 89.3987 71.2223 88.9599 71.9977 88.9112L74.0385 88.7838C75.0318 88.7213 75.8353 89.3833 75.9867 90.3164L76.1956 90.2909C76.2778 89.3379 76.9694 88.5991 77.9829 88.5342L79.9349 88.412C80.177 88.397 80.4066 88.424 80.6213 88.4892C80.5522 88.274 80.5109 88.038 80.5035 87.7873C80.4882 87.2241 80.4985 86.5493 80.7271 86.0277C81.1293 85.1124 82.0028 84.6785 82.9716 84.6513L84.2286 84.6155C84.8017 84.6009 85.3617 84.7147 85.828 85.0605C86.4033 85.4853 86.698 86.15 86.6746 86.8596L86.6439 87.709C86.6286 88.2436 86.4241 88.7461 86.0774 89.1337C86.152 89.2643 86.208 89.403 86.2489 89.5516L86.8744 89.5414C88.0388 88.4819 89.4901 87.9403 91.1655 87.9531C91.8275 87.9571 92.4848 88.0551 93.123 88.2228C93.8687 88.4182 94.5771 88.808 94.9012 89.4616C95.1067 89.4696 95.2644 89.4799 95.3594 89.4945C95.5222 89.5168 95.7233 89.5282 95.9435 89.5333L95.9435 89.5333Z" fill="#0C1C8C"/>
<path d="M96.9377 94.2319C97.6648 94.2747 98.3282 94.207 98.9273 94.0254C99.7224 93.777 100.14 93.3411 100.176 92.7233C100.213 92.0994 99.914 91.7667 99.2758 91.7287C98.6526 91.6917 98.1187 91.9508 97.675 92.5012C97.3912 92.8445 97.1469 93.4187 96.9377 94.2319ZM96.663 96.0325C96.6217 96.7051 96.7899 97.2748 97.167 97.7536C97.5478 98.1638 98.1095 98.39 98.8461 98.4327C99.2185 98.4559 99.6178 98.4178 100.039 98.3249L101.349 97.956C101.491 97.964 101.555 98.0547 101.546 98.2282L101.338 99.6262C101.317 99.9951 100.831 100.246 99.8811 100.382L98.9126 100.45L97.848 100.448C96.606 100.375 95.6401 100.002 94.9459 99.3356C94.6138 99.0004 94.3728 98.592 94.2236 98.1158C94.0718 97.6405 94.0173 97.0838 94.0535 96.4485L94.0707 96.1353L94.1369 95.7898C94.2565 94.9726 94.4602 94.2275 94.7481 93.5549C95.0333 92.8785 95.4137 92.26 95.8781 91.6983C96.9297 90.4068 98.2554 89.8085 99.8577 89.9043C100.278 89.9295 100.657 89.9944 100.987 90.0972C101.319 90.1985 101.613 90.3511 101.861 90.551C102.405 90.9905 102.657 91.5761 102.613 92.3157L102.597 92.607C102.56 93.2248 102.344 93.7901 101.951 94.2989C101.761 94.5363 101.533 94.7515 101.276 94.9481C101.022 95.1409 100.722 95.3111 100.38 95.4655C99.8618 95.684 99.2853 95.8457 98.6577 95.9457C98.0283 96.0456 97.3623 96.0727 96.663 96.0324L96.663 96.0325ZM92.832 97.6647L92.7098 99.1271C92.7098 99.4381 92.279 99.6906 91.4271 99.886L90.4638 100.041L89.5912 100.115C88.3217 100.105 87.351 99.748 86.684 99.0402C86.0161 98.334 85.6843 97.4213 85.691 96.3014L85.6953 95.7642C85.6979 95.5273 85.7027 95.3126 85.718 95.1222C85.7305 94.9323 85.7597 94.7431 85.7999 94.5608C85.8566 94.2143 85.9682 93.8191 86.1313 93.374C86.3745 92.7215 86.7336 92.0777 87.2044 91.445C88.1926 90.1242 89.5063 89.4691 91.1554 89.4809C91.6593 89.4842 92.1897 89.5577 92.7351 89.7012C93.2876 89.8458 93.5598 90.0397 93.5586 90.2838L93.5579 90.5159C93.5572 90.6297 93.5433 90.7325 93.5191 90.8291L93.4236 91.7634C93.4236 91.9095 93.3443 91.9816 93.1827 91.9797C93.0448 91.979 92.8023 91.8882 92.4629 91.7088C92.117 91.5332 91.7837 91.4417 91.4648 91.4392C90.5823 91.434 89.8593 91.8674 89.2857 92.7388C88.9247 93.3243 88.6698 94.2004 88.5188 95.3675C88.5148 95.7532 88.5412 96.0859 88.5898 96.3684C88.6424 96.6472 88.7368 96.9013 88.871 97.1274C89.1778 97.7371 89.6424 98.0452 90.2667 98.0485L90.7472 98.0336C90.843 98.0226 90.9411 98.0046 91.0383 97.983C91.1382 97.9607 91.259 97.9197 91.4019 97.8611L92.6516 97.441C92.7167 97.4417 92.777 97.516 92.832 97.6647V97.6647ZM82.0325 87.7432C82.0138 87.1771 82.0468 86.8097 82.1258 86.6439C82.2483 86.3475 82.5464 86.1923 83.0156 86.1784L84.2715 86.1444C84.5652 86.1363 84.7788 86.185 84.9221 86.2915C85.0667 86.3969 85.1383 86.567 85.1486 86.809L85.1189 87.6569C85.0893 87.9072 84.9803 88.1027 84.7861 88.2469C84.6918 88.2966 84.5846 88.3372 84.4599 88.3676C84.3351 88.3983 84.1958 88.4152 84.04 88.4189L82.8693 88.4493C82.3266 88.4668 82.046 88.2307 82.0324 87.7432L82.0325 87.7432ZM81.5091 99.7019L82.0965 90.1502C82.0928 89.9306 82.2113 89.8183 82.4542 89.8109L84.4467 89.755C84.6676 89.7498 84.7773 89.8563 84.7839 90.0751L84.1932 99.6268C84.2009 99.8702 84.0711 99.9957 83.802 100.004L81.8232 100.059C81.6211 100.065 81.5158 99.9453 81.5091 99.7019H81.5091ZM77.5496 95.9984C77.3935 96.615 77.2048 97.1826 76.9824 97.6942C76.7608 98.2066 76.4985 98.6746 76.1873 99.0962C75.4166 100.179 74.4888 100.753 73.4011 100.822C72.8525 100.857 72.4103 100.714 72.0684 100.395C71.7271 100.079 71.5358 99.6287 71.4997 99.0534L71.5136 98.6853L71.7338 90.8265C71.7176 90.5824 71.8391 90.454 72.0951 90.4375L74.134 90.3094C74.3539 90.2944 74.4691 90.41 74.4859 90.6527L74.3121 96.8368L74.295 97.0084L74.3637 97.6218C74.3671 97.7092 74.4708 97.7488 74.6717 97.7363C74.8981 97.7224 75.1928 97.5171 75.5553 97.1248C75.7163 96.9257 75.8812 96.6797 76.0483 96.3881C76.2184 96.096 76.4086 95.7426 76.6141 95.3232C77.0844 94.3687 77.4 93.5599 77.5577 92.8931C77.6378 92.5656 77.6882 92.2058 77.7179 91.8088C77.7442 91.412 77.7449 90.9916 77.7164 90.5378C77.697 90.2358 77.8196 90.0767 78.0796 90.0602L80.0319 89.9373C80.2509 89.9233 80.3687 90.0386 80.3826 90.283L80.1164 99.8268C80.1307 100.071 80.006 100.201 79.7383 100.218L77.7896 100.341C77.58 100.354 77.4689 100.238 77.452 99.9957L77.5496 95.9984V95.9984ZM66.0837 88.7042C66.0373 88.1393 66.0516 87.7718 66.1193 87.6001C66.2268 87.299 66.5223 87.1273 67.0018 87.0878L68.3105 86.9835C68.611 86.9598 68.818 86.9919 68.9255 87.0775C69.0503 87.1438 69.1238 87.3088 69.1465 87.5723L69.1615 88.4562C69.1432 88.6838 69.0682 88.8836 68.9325 89.0556C68.7972 89.1672 68.5862 89.2367 68.294 89.2599L66.9993 89.3645C66.8943 89.3722 66.7937 89.3653 66.6851 89.3433C66.5794 89.325 66.4758 89.2901 66.3673 89.2441C66.2015 89.1442 66.1043 88.9648 66.0838 88.7042H66.0837ZM69.0306 90.9224L68.9102 101.927C68.9508 102.43 68.8927 102.891 68.738 103.31C68.5793 103.728 68.3298 104.098 67.9919 104.416C67.3833 105.015 66.5366 105.357 65.4529 105.446C65.0246 105.48 64.5901 105.478 64.1446 105.444C63.4966 105.389 63.1616 105.221 63.1382 104.941L63.1476 104.187L63.1528 103.56C63.1407 103.405 63.2227 103.295 63.404 103.227L63.697 103.222L64.029 103.331C64.299 103.417 64.4914 103.453 64.6095 103.443C65.074 103.406 65.4376 103.218 65.7042 102.875C65.9671 102.535 66.1145 102.084 66.139 101.519L66.2472 91.1468C66.2254 90.892 66.3431 90.7525 66.5977 90.7331L68.6535 90.5666C68.8839 90.548 69.0093 90.6677 69.0306 90.9224H69.0306Z" fill="#FFF500"/>
<path d="M96.9377 94.2319C97.6648 94.2747 98.3282 94.207 98.9273 94.0254C99.7224 93.777 100.14 93.3411 100.176 92.7233C100.213 92.0994 99.914 91.7667 99.2758 91.7287C98.6526 91.6917 98.1187 91.9508 97.675 92.5012C97.3912 92.8445 97.1469 93.4187 96.9377 94.2319V94.2319ZM96.663 96.0325C96.6217 96.7051 96.7899 97.2748 97.167 97.7536C97.5478 98.1638 98.1095 98.39 98.8461 98.4327C99.2185 98.4559 99.6178 98.4178 100.039 98.3249L101.349 97.956C101.491 97.964 101.555 98.0547 101.546 98.2282L101.338 99.6262C101.317 99.9951 100.831 100.246 99.8811 100.382L98.9126 100.45L97.848 100.448C96.606 100.375 95.6401 100.002 94.9459 99.3356C94.6138 99.0004 94.3728 98.592 94.2236 98.1158C94.0718 97.6405 94.0173 97.0838 94.0535 96.4485L94.0707 96.1353L94.1369 95.7898C94.2565 94.9726 94.4602 94.2275 94.7481 93.5549C95.0333 92.8785 95.4137 92.26 95.8781 91.6983C96.9297 90.4068 98.2554 89.8085 99.8577 89.9043C100.278 89.9295 100.657 89.9944 100.987 90.0972C101.319 90.1985 101.613 90.3511 101.861 90.551C102.405 90.9905 102.657 91.5761 102.613 92.3157L102.597 92.607C102.56 93.2248 102.344 93.7901 101.951 94.2989C101.761 94.5363 101.533 94.7515 101.276 94.9481C101.022 95.1409 100.722 95.3111 100.38 95.4655C99.8618 95.684 99.2853 95.8457 98.6577 95.9457C98.0283 96.0456 97.3623 96.0727 96.663 96.0324L96.663 96.0325ZM92.832 97.6647L92.7098 99.1271C92.7098 99.4381 92.279 99.6906 91.4271 99.886L90.4638 100.041L89.5912 100.115C88.3217 100.105 87.351 99.748 86.684 99.0402C86.0161 98.334 85.6843 97.4213 85.691 96.3014L85.6953 95.7642C85.6979 95.5273 85.7027 95.3126 85.718 95.1222C85.7305 94.9323 85.7597 94.7431 85.7999 94.5608C85.8566 94.2143 85.9682 93.8191 86.1313 93.374C86.3745 92.7215 86.7336 92.0777 87.2044 91.445C88.1926 90.1242 89.5063 89.4691 91.1554 89.4809C91.6593 89.4842 92.1897 89.5577 92.7351 89.7012C93.2876 89.8458 93.5598 90.0397 93.5586 90.2838L93.5579 90.5159C93.5572 90.6297 93.5433 90.7325 93.5191 90.8291L93.4236 91.7634C93.4236 91.9095 93.3443 91.9816 93.1827 91.9797C93.0448 91.979 92.8023 91.8882 92.4629 91.7088C92.117 91.5332 91.7837 91.4417 91.4648 91.4392C90.5823 91.434 89.8593 91.8674 89.2857 92.7388C88.9247 93.3243 88.6698 94.2004 88.5188 95.3675C88.5148 95.7532 88.5412 96.0859 88.5898 96.3684C88.6424 96.6472 88.7368 96.9013 88.871 97.1274C89.1778 97.7371 89.6424 98.0452 90.2667 98.0485L90.7472 98.0336C90.843 98.0226 90.9411 98.0046 91.0383 97.983C91.1382 97.9607 91.259 97.9197 91.4019 97.8611L92.6516 97.441C92.7167 97.4417 92.777 97.516 92.832 97.6647V97.6647ZM82.0325 87.7432C82.0138 87.1771 82.0468 86.8097 82.1258 86.6439C82.2483 86.3475 82.5464 86.1923 83.0156 86.1784L84.2715 86.1444C84.5652 86.1363 84.7788 86.185 84.9221 86.2915C85.0667 86.3969 85.1383 86.567 85.1486 86.809L85.1189 87.6569C85.0893 87.9072 84.9803 88.1027 84.7861 88.2469C84.6918 88.2966 84.5846 88.3372 84.4599 88.3676C84.3351 88.3983 84.1958 88.4152 84.04 88.4189L82.8693 88.4493C82.3266 88.4668 82.046 88.2307 82.0324 87.7432L82.0325 87.7432ZM81.5091 99.7019L82.0965 90.1502C82.0928 89.9306 82.2113 89.8183 82.4542 89.8109L84.4467 89.755C84.6676 89.7498 84.7773 89.8563 84.7839 90.0751L84.1932 99.6268C84.2009 99.8702 84.0711 99.9957 83.802 100.004L81.8232 100.059C81.6211 100.065 81.5158 99.9453 81.5091 99.7019H81.5091ZM77.5496 95.9984C77.3935 96.615 77.2048 97.1826 76.9824 97.6942C76.7608 98.2066 76.4985 98.6746 76.1873 99.0962C75.4166 100.179 74.4888 100.753 73.4011 100.822C72.8525 100.857 72.4103 100.714 72.0684 100.395C71.7271 100.079 71.5358 99.6287 71.4997 99.0534L71.5136 98.6853L71.7338 90.8265C71.7176 90.5824 71.8391 90.454 72.0951 90.4375L74.134 90.3094C74.3539 90.2944 74.4691 90.41 74.4859 90.6527L74.3121 96.8368L74.295 97.0084L74.3637 97.6218C74.3671 97.7092 74.4708 97.7488 74.6717 97.7363C74.8981 97.7224 75.1928 97.5171 75.5553 97.1248C75.7163 96.9257 75.8812 96.6797 76.0483 96.3881C76.2184 96.096 76.4086 95.7426 76.6141 95.3232C77.0844 94.3687 77.4 93.5599 77.5577 92.8931C77.6378 92.5656 77.6882 92.2058 77.7179 91.8088C77.7442 91.412 77.7449 90.9916 77.7164 90.5378C77.697 90.2358 77.8196 90.0767 78.0796 90.0602L80.0319 89.9373C80.2509 89.9233 80.3687 90.0386 80.3826 90.283L80.1164 99.8268C80.1307 100.071 80.006 100.201 79.7383 100.218L77.7896 100.341C77.58 100.354 77.4689 100.238 77.452 99.9957L77.5496 95.9984V95.9984ZM66.0837 88.7042C66.0373 88.1393 66.0516 87.7718 66.1193 87.6001C66.2268 87.299 66.5223 87.1273 67.0018 87.0878L68.3105 86.9835C68.611 86.9598 68.818 86.9919 68.9255 87.0775C69.0503 87.1438 69.1238 87.3088 69.1465 87.5723L69.1615 88.4562C69.1432 88.6838 69.0682 88.8836 68.9325 89.0556C68.7972 89.1672 68.5862 89.2367 68.294 89.2599L66.9993 89.3645C66.8943 89.3722 66.7937 89.3653 66.6851 89.3433C66.5794 89.325 66.4758 89.2901 66.3673 89.2441C66.2015 89.1442 66.1043 88.9648 66.0838 88.7042H66.0837ZM69.0306 90.9224L68.9102 101.927C68.9508 102.43 68.8927 102.891 68.738 103.31C68.5793 103.728 68.3298 104.098 67.9919 104.416C67.3833 105.015 66.5366 105.357 65.4529 105.446C65.0246 105.48 64.5901 105.478 64.1446 105.444C63.4966 105.389 63.1616 105.221 63.1382 104.941L63.1476 104.187L63.1528 103.56C63.1407 103.405 63.2227 103.295 63.404 103.227L63.697 103.222L64.029 103.331C64.299 103.417 64.4914 103.453 64.6095 103.443C65.074 103.406 65.4376 103.218 65.7042 102.875C65.9671 102.535 66.1145 102.084 66.139 101.519L66.2472 91.1468C66.2254 90.892 66.3431 90.7525 66.5977 90.7331L68.6535 90.5666C68.8839 90.548 69.0093 90.6677 69.0306 90.9224H69.0306Z" stroke="#FFF500" stroke-width="0.345235" stroke-linecap="round" stroke-linejoin="round"/>
<path d="M96.9377 94.2319C97.6648 94.2747 98.3282 94.207 98.9273 94.0254C99.7224 93.777 100.14 93.3411 100.176 92.7233C100.213 92.0994 99.914 91.7667 99.2758 91.7287C98.6526 91.6917 98.1187 91.9508 97.675 92.5012C97.3912 92.8445 97.1469 93.4187 96.9377 94.2319ZM96.663 96.0325C96.6217 96.7051 96.7899 97.2748 97.167 97.7536C97.5478 98.1638 98.1095 98.39 98.8461 98.4327C99.2185 98.4559 99.6178 98.4178 100.039 98.3249L101.349 97.956C101.491 97.964 101.555 98.0547 101.546 98.2282L101.338 99.6262C101.317 99.9951 100.831 100.246 99.8811 100.382L98.9126 100.45L97.848 100.448C96.606 100.375 95.6401 100.002 94.9459 99.3356C94.6138 99.0004 94.3728 98.592 94.2236 98.1158C94.0718 97.6405 94.0173 97.0838 94.0535 96.4485L94.0707 96.1353L94.1369 95.7898C94.2565 94.9726 94.4602 94.2275 94.7481 93.5549C95.0333 92.8785 95.4137 92.26 95.8781 91.6983C96.9297 90.4068 98.2554 89.8085 99.8577 89.9043C100.278 89.9295 100.657 89.9944 100.987 90.0972C101.319 90.1985 101.613 90.3511 101.861 90.551C102.405 90.9905 102.657 91.5761 102.613 92.3157L102.597 92.607C102.56 93.2248 102.344 93.7901 101.951 94.2989C101.761 94.5363 101.533 94.7515 101.276 94.9481C101.022 95.1409 100.722 95.3111 100.38 95.4655C99.8618 95.684 99.2853 95.8457 98.6577 95.9457C98.0283 96.0456 97.3623 96.0727 96.663 96.0324L96.663 96.0325ZM92.832 97.6647L92.7098 99.1271C92.7098 99.4381 92.279 99.6906 91.4271 99.886L90.4638 100.041L89.5912 100.115C88.3217 100.105 87.351 99.748 86.684 99.0402C86.0161 98.334 85.6843 97.4213 85.691 96.3014L85.6953 95.7642C85.6979 95.5273 85.7027 95.3126 85.718 95.1222C85.7305 94.9323 85.7597 94.7431 85.7999 94.5608C85.8566 94.2143 85.9682 93.8191 86.1313 93.374C86.3745 92.7215 86.7336 92.0777 87.2044 91.445C88.1926 90.1242 89.5063 89.4691 91.1554 89.4809C91.6593 89.4842 92.1897 89.5577 92.7351 89.7012C93.2876 89.8458 93.5598 90.0397 93.5586 90.2838L93.5579 90.5159C93.5572 90.6297 93.5433 90.7325 93.5191 90.8291L93.4236 91.7634C93.4236 91.9095 93.3443 91.9816 93.1827 91.9797C93.0448 91.979 92.8023 91.8882 92.4629 91.7088C92.117 91.5332 91.7837 91.4417 91.4648 91.4392C90.5823 91.434 89.8593 91.8674 89.2857 92.7388C88.9247 93.3243 88.6698 94.2004 88.5188 95.3675C88.5148 95.7532 88.5412 96.0859 88.5898 96.3684C88.6424 96.6472 88.7368 96.9013 88.871 97.1274C89.1778 97.7371 89.6424 98.0452 90.2667 98.0485L90.7472 98.0336C90.843 98.0226 90.9411 98.0046 91.0383 97.983C91.1382 97.9607 91.259 97.9197 91.4019 97.8611L92.6516 97.441C92.7167 97.4417 92.777 97.516 92.832 97.6647V97.6647ZM82.0325 87.7432C82.0138 87.1771 82.0468 86.8097 82.1258 86.6439C82.2483 86.3475 82.5464 86.1923 83.0156 86.1784L84.2715 86.1444C84.5652 86.1363 84.7788 86.185 84.9221 86.2915C85.0667 86.3969 85.1383 86.567 85.1486 86.809L85.1189 87.6569C85.0893 87.9072 84.9803 88.1027 84.7861 88.2469C84.6918 88.2966 84.5846 88.3372 84.4599 88.3676C84.3351 88.3983 84.1958 88.4152 84.04 88.4189L82.8693 88.4493C82.3266 88.4668 82.046 88.2307 82.0324 87.7432L82.0325 87.7432ZM81.5091 99.7019L82.0965 90.1502C82.0928 89.9306 82.2113 89.8183 82.4542 89.8109L84.4467 89.755C84.6676 89.7498 84.7773 89.8563 84.7839 90.0751L84.1932 99.6268C84.2009 99.8702 84.0711 99.9957 83.802 100.004L81.8232 100.059C81.6211 100.065 81.5158 99.9453 81.5091 99.7019H81.5091ZM77.5496 95.9984C77.3935 96.615 77.2048 97.1826 76.9824 97.6942C76.7608 98.2066 76.4985 98.6746 76.1873 99.0962C75.4166 100.179 74.4888 100.753 73.4011 100.822C72.8525 100.857 72.4103 100.714 72.0684 100.395C71.7271 100.079 71.5358 99.6287 71.4997 99.0534L71.5136 98.6853L71.7338 90.8265C71.7176 90.5824 71.8391 90.454 72.0951 90.4375L74.134 90.3094C74.3539 90.2944 74.4691 90.41 74.4859 90.6527L74.3121 96.8368L74.295 97.0084L74.3637 97.6218C74.3671 97.7092 74.4708 97.7488 74.6717 97.7363C74.8981 97.7224 75.1928 97.5171 75.5553 97.1248C75.7163 96.9257 75.8812 96.6797 76.0483 96.3881C76.2184 96.096 76.4086 95.7426 76.6141 95.3232C77.0844 94.3687 77.4 93.5599 77.5577 92.8931C77.6378 92.5656 77.6882 92.2058 77.7179 91.8088C77.7442 91.412 77.7449 90.9916 77.7164 90.5378C77.697 90.2358 77.8196 90.0767 78.0796 90.0602L80.0319 89.9373C80.2509 89.9233 80.3687 90.0386 80.3826 90.283L80.1164 99.8268C80.1307 100.071 80.006 100.201 79.7383 100.218L77.7896 100.341C77.58 100.354 77.4689 100.238 77.452 99.9957L77.5496 95.9984V95.9984ZM66.0837 88.7042C66.0373 88.1393 66.0516 87.7718 66.1193 87.6001C66.2268 87.299 66.5223 87.1273 67.0018 87.0878L68.3105 86.9835C68.611 86.9598 68.818 86.9919 68.9255 87.0775C69.0503 87.1438 69.1238 87.3088 69.1465 87.5723L69.1615 88.4562C69.1432 88.6838 69.0682 88.8836 68.9325 89.0556C68.7972 89.1672 68.5862 89.2367 68.294 89.2599L66.9993 89.3645C66.8943 89.3722 66.7937 89.3653 66.6851 89.3433C66.5794 89.325 66.4758 89.2901 66.3673 89.2441C66.2015 89.1442 66.1043 88.9648 66.0838 88.7042H66.0837ZM69.0306 90.9224L68.9102 101.927C68.9508 102.43 68.8927 102.891 68.738 103.31C68.5793 103.728 68.3298 104.098 67.9919 104.416C67.3833 105.015 66.5366 105.357 65.4529 105.446C65.0246 105.48 64.5901 105.478 64.1446 105.444C63.4966 105.389 63.1616 105.221 63.1382 104.941L63.1476 104.187L63.1528 103.56C63.1407 103.405 63.2227 103.295 63.404 103.227L63.697 103.222L64.029 103.331C64.299 103.417 64.4914 103.453 64.6095 103.443C65.074 103.406 65.4376 103.218 65.7042 102.875C65.9671 102.535 66.1145 102.084 66.139 101.519L66.2472 91.1468C66.2254 90.892 66.3431 90.7525 66.5977 90.7331L68.6535 90.5666C68.8839 90.548 69.0093 90.6677 69.0306 90.9224H69.0306Z" fill="#FFF500"/>
<path fill-rule="evenodd" clip-rule="evenodd" d="M92.5885 9.75785H92.5706C92.1956 9.75857 91.8381 9.78233 91.4953 9.82995C93.6484 14.6134 92.9978 20.3496 90.664 25.8629C89.9288 27.5953 88.9164 29.1511 87.6807 30.4974L87.8576 30.6988C89.8162 32.8983 92.1079 34.2596 94.9752 34.6219C103.963 35.756 111.479 27.5493 110.392 19.8284C106.17 19.2034 101.514 15.9957 100.784 10.9999C99.7539 11.035 98.8327 11.1163 98.0252 10.8088C95.8157 10.1157 94.0657 9.75781 92.5884 9.75781L92.5885 9.75785Z" fill="url(#paint1_radial)"/>
<path d="M88.189 29.9178C89.1951 28.7108 90.0316 27.3531 90.665 25.8633C92.927 20.5158 93.6088 14.9549 91.6799 10.2614C91.817 10.0723 92.069 10.1389 92.4001 10.6798C92.9856 11.6447 93.3857 12.7094 93.6519 13.8226C94.5765 17.6883 94.0682 20.982 93.2511 24.7947C92.2977 29.2627 91.7169 32.9495 98.5671 33.1174L92.1693 32.9919L88.189 29.9178L88.189 29.9178Z" fill="#99CAB1"/>
<path d="M94.9754 34.6216C92.108 34.2593 89.8163 32.8983 87.8575 30.6984L87.6812 30.4979C88.1018 30.0394 88.4968 29.5559 88.8643 29.0498L88.9097 29.1007C90.8671 31.2994 93.1588 32.6597 96.0268 33.0227C101.262 33.684 105.997 31.1731 108.823 27.4355C106.233 32.0247 100.927 35.3733 94.9754 34.6216V34.6216Z" fill="#99CAB1"/>
<path d="M107.127 7.54912L107.089 7.53408C105.673 6.92327 104.185 6.90138 102.593 7.08614C102.241 7.10523 101.446 7.46561 101.537 7.50514C101.339 8.98217 101.384 10.5113 101.877 11.9433C102.595 13.9751 104.162 15.3913 106.008 16.4007C106.094 16.4604 106.205 16.509 106.315 16.5573C108.008 17.3694 111.136 18.0025 113.413 17.817C113.779 17.7643 114.142 17.7335 114.444 17.6534C113.816 17.3009 113.348 16.7019 112.989 16.0962C112.571 15.4375 112.244 14.6364 111.889 13.8239C111.173 12.1083 110.477 10.2718 109.378 9.13704C109.334 9.11868 109.301 9.07334 109.265 9.03268C108.567 8.34614 107.856 7.86935 107.127 7.54911V7.54912Z" fill="#007A3D"/>
<path d="M99.9427 7.03781C99.9417 6.40511 98.538 6.32751 98.2626 6.70149C98.3369 7.07557 99.2921 7.05544 99.4941 7.02318C99.3481 7.19777 98.459 7.20732 98.2016 6.99797C98.4177 8.31835 98.5109 9.15387 98.1109 10.359C97.9948 10.6972 98.8112 10.9599 98.9729 10.5906C99.4 9.62411 99.8587 8.7026 99.9427 7.0378V7.03781Z" fill="#E15616"/>
<path fill-rule="evenodd" clip-rule="evenodd" d="M108.298 21.2463C109.228 23.6821 106.824 27.6159 104.93 28.4682C105.974 26.499 105.936 24.5879 105.482 22.3698C104.817 19.1247 107.515 19.1918 108.298 21.2463L108.298 21.2463Z" fill="white"/>
<path fill-rule="evenodd" clip-rule="evenodd" d="M94.7153 10.3647C95.4197 10.8664 95.8425 11.3081 96.2755 11.5932C97.6266 12.4544 98.8847 12.443 100.54 11.3938C98.4257 12.1693 97.7872 11.516 96.702 10.9773C95.8345 10.5711 95.581 10.446 94.7153 10.3648V10.3647Z" fill="white"/>
<path fill-rule="evenodd" clip-rule="evenodd" d="M69.9071 6.6482C69.6504 6.67714 69.3988 6.71044 69.1494 6.74706C68.7383 7.49543 68.2511 8.20324 67.6791 8.85316C65.5933 11.2187 62.7515 12.1176 59.7039 12.6051C59.3363 12.6633 59.364 12.661 59.2544 12.6588C59.2082 12.6578 59.138 12.6566 59.0038 12.6599L58.7723 12.6643C56.5384 16.2255 56.5493 20.9974 59.2646 26.0686C63.234 33.4838 73.0273 37.8446 81.3547 33.7711C86.9073 31.056 89.6405 25.2693 89.7739 19.3506C89.9093 13.2653 87.2789 7.05125 80.6997 4.8913C79.4843 4.48547 78.4244 4.32478 77.4808 4.3252C73.981 4.3252 72.0939 6.53669 69.9071 6.64832L69.9071 6.6482Z" fill="url(#paint2_radial)"/>
<path d="M81.3561 33.7703C73.4722 37.6261 64.2784 33.9254 59.9521 27.2309C64.7115 32.4122 72.6486 34.8562 79.5717 31.4687C85.1228 28.7537 87.8557 22.9673 87.9906 17.0485C88.0623 13.8647 87.3743 10.6456 85.761 7.99121C88.6559 10.9358 89.8672 15.173 89.7743 19.3504C89.6415 25.2688 86.9077 31.0562 81.3562 33.7703L81.3561 33.7703Z" fill="#EB891B"/>
<path fill-rule="evenodd" clip-rule="evenodd" d="M65.0439 14.9177C66.3441 12.8204 65.3829 11.9486 64.1424 12.0935C63.8889 12.1222 63.6505 12.1836 63.4262 12.2718C60.6624 13.3528 60.5212 17.5589 61.3767 19.9641C61.749 21.0133 62.3612 21.9765 63.2565 22.7761C62.6151 20.0365 63.2869 17.7522 65.0439 14.9177L65.0439 14.9177Z" fill="white"/>
<path d="M69.5779 2.25497C66.9219 2.16234 62.7206 2.75115 59.5099 5.61599C62.995 3.59143 67.5221 2.91921 70.1075 3.04473C69.5457 4.91337 68.6618 6.70545 67.2968 8.13268C62.9848 12.561 53.6087 11.5827 49.1416 7.84833C50.9823 7.49811 52.9943 6.01631 54.2765 4.73068C58.7352 0.258929 62.9445 -1.9756 69.5779 2.25496V2.25497Z" fill="#007A3D"/>
<path fill-rule="evenodd" clip-rule="evenodd" d="M68.0522 8.70636C69.0884 8.7879 69.8082 8.98697 70.4325 9.01259C72.3595 9.05761 73.6121 8.22543 74.5671 6.01611C72.9677 8.23062 71.8925 7.94399 70.4493 8.06993C69.3093 8.19877 68.9713 8.23062 68.0522 8.70636V8.70636Z" fill="#E15616"/>
<path d="M70.7011 1.10933C70.9103 0.207951 72.9342 0.782558 73.2056 1.45188C72.9759 1.94671 71.6238 1.45229 71.3451 1.30841C71.4932 1.62865 72.7554 2.07514 73.1958 1.90314C72.4463 3.67624 71.8483 5.86584 72.0473 8.18865C72.0751 8.72291 70.7716 8.70133 70.7406 8.09788C70.4234 5.4871 70.2673 3.52074 70.7011 1.10934V1.10933Z" fill="#E15616"/>
<path d="M80.6576 10.3129C86.7039 13.3359 85.1946 31.0061 70.5091 32.8645C68.1027 33.1689 75.9243 35.7856 78.9464 34.6296C87.7752 31.2546 90.7278 16.1874 81.6436 9.91251C80.6499 9.22556 79.9185 9.94218 80.6576 10.3128L80.6576 10.3129Z" fill="#EB891B"/>
<path d="M59.1178 32.4402C59.0667 32.1386 59.0225 31.8356 58.9734 31.5376C57.6165 23.4272 54.3326 20.0594 48.862 18.3003C44.6655 16.9507 40.5612 16.9067 36.3716 16.0563C34.3085 15.6372 32.2429 14.943 30.9551 13.624C30.9522 14.3081 31.081 15.0484 31.2079 15.8333C33.8942 29.4056 44.9182 40.0087 58.7149 33.8429C56.15 30.6594 50.6025 25.9197 44.4992 23.7862C51.353 24.7318 56.44 29.1776 59.1179 32.4402L59.1178 32.4402Z" fill="#68B92E"/>
<path fill-rule="evenodd" clip-rule="evenodd" d="M58.715 33.8432C56.1497 30.6597 50.6025 25.9201 44.4992 23.7861C51.353 24.7318 56.4401 29.1779 59.1181 32.4405C59.0669 32.1389 59.0226 31.8359 58.974 31.5381C54.9994 13.7459 42.8226 21.2218 34.1865 16.2666C36.4957 27.3283 46.0522 36.267 58.715 33.8432L58.715 33.8432Z" fill="url(#paint3_linear)"/>
<path fill-rule="evenodd" clip-rule="evenodd" d="M32.7554 15.6157C43.4623 18.8648 53.981 17.2242 57.105 27.0207C52.0139 18.8483 40.8711 19.4174 32.7554 15.6157Z" fill="white"/>
<path d="M31.208 15.8335C33.8943 29.4052 44.9184 40.0089 58.7151 33.843C46.4161 37.8921 35.1353 27.6487 31.208 15.8335Z" fill="#4CA277"/>
<path d="M136.451 19.2852C131.466 19.5267 127.378 17.4477 121.36 18.4335C117.144 19.1231 113.357 21.4747 110.972 26.9419C110.628 27.7306 110.369 28.5207 110.063 29.3178C112.94 26.3988 118.723 22.8727 125.211 23.6709C119.129 24.1997 113.213 27.731 110.052 30.7799C121.814 40.8303 137.429 31.6018 140.18 18.285C139.14 18.9452 137.825 19.2185 136.451 19.2852L136.451 19.2852Z" fill="#68B92E"/>
<path d="M110.052 30.7794C121.814 40.83 137.429 31.6014 140.18 18.2847C137.281 29.5949 121.626 38.2811 110.052 30.7794Z" fill="#4CA277"/>
<path fill-rule="evenodd" clip-rule="evenodd" d="M135.411 19.8376C126.261 19.2064 118.436 15.4154 111.535 26.4767C118.608 16.2694 128.117 21.2166 135.411 19.8376Z" fill="white"/>
<path d="M26.2064 35.0714C23.3694 32.5407 20.6461 29.0974 16.0386 29.2174C20.9365 31.8773 22.3326 35.8267 26.6841 37.6196C28.7443 38.4686 32.744 38.5253 35.6995 36.7673C32.6508 38.5236 28.93 37.4996 26.2064 35.0714L26.2064 35.0714Z" fill="#66AF8B"/>
<path d="M36.6304 36.132C36.8312 35.9718 37.0239 35.8005 37.2075 35.6172C37.0199 35.8042 36.8257 35.9732 36.6304 36.132Z" fill="#66AF8B"/>
<path d="M36.0103 36.5835C36.0249 36.5738 36.0394 36.5619 36.054 36.5522C36.0394 36.5612 36.0249 36.5741 36.0103 36.5835Z" fill="#66AF8B"/>
<path d="M25.5398 23.9402C24.4627 22.8602 23.4521 21.4168 21.604 21.3594C23.504 22.5377 23.9715 24.1532 25.6729 24.9711C26.4775 25.3587 28.071 25.4677 29.2944 24.8346C28.0337 25.4625 26.5722 24.9736 25.5398 23.9402V23.9402Z" fill="#7FBC9E"/>
<path d="M121.98 14.8447C123.432 13.0247 124.72 10.6664 127.515 10.2661C124.832 12.3751 124.395 14.9039 121.952 16.4326C120.797 17.1558 118.397 17.5891 116.44 16.8363C118.454 17.5762 120.586 16.587 121.98 14.8447L121.98 14.8447Z" fill="#7FBC9E"/>
<path fill-rule="evenodd" clip-rule="evenodd" d="M133.25 34.8004C133.513 35.0679 133.803 35.3 134.114 35.5053C134.182 35.551 134.256 35.581 134.329 35.6246C136.412 36.885 139.237 36.8788 140.703 36.291C143.797 35.0467 144.812 32.2511 148.304 30.3945C145.98 29.2684 143.578 28.7111 141.391 28.7114C137.187 28.7114 133.777 30.7696 133.25 34.8004L133.25 34.8004Z" fill="url(#paint4_linear)"/>
<path d="M141.056 34.4845C143.086 32.7067 145.038 30.2796 148.304 30.3946C144.812 32.2507 143.797 35.0467 140.703 36.2909C139.238 36.8787 136.412 36.885 134.329 35.6245C136.479 36.8795 139.111 36.1874 141.056 34.4845L141.056 34.4845Z" fill="#7FBC9E"/>
<path d="M137.782 68.2067C131.531 68.7794 126.786 72.4676 122.704 77.3518C124.724 75.5762 126.878 74.1796 129.384 73.4447C132.234 72.6396 135.29 72.7845 138.203 72.8361C133.911 73.5032 129.476 74.6477 125.588 76.864C123.629 78.0054 121.993 79.3621 120.268 80.8789C124.18 78.6919 127.787 78.4157 132.081 78.6715C135.567 78.8735 138.888 79.2683 142.371 78.5818C148.737 77.3759 154.144 73.6427 157.812 67.8081C152.199 71.1183 145.481 68.0237 139.42 68.1144C138.879 68.1233 138.334 68.154 137.782 68.2067L137.782 68.2067Z" stroke="#0C1C8C" stroke-width="0.345235" stroke-linecap="round" stroke-linejoin="round"/>
</g>
<defs>
<linearGradient id="paint0_linear" x1="49.3975" y1="80.6792" x2="49.3975" y2="48.768" gradientUnits="userSpaceOnUse">
<stop stop-color="#FAFAFD"/>
<stop offset="1" stop-color="#5560AE"/>
</linearGradient>
<radialGradient id="paint1_radial" cx="0" cy="0" r="1" gradientUnits="userSpaceOnUse" gradientTransform="translate(103.625 20.9371) scale(7.27496 7.27953)">
<stop stop-color="#91C81F"/>
<stop offset="1" stop-color="#00A539"/>
</radialGradient>
<radialGradient id="paint2_radial" cx="0" cy="0" r="1" gradientUnits="userSpaceOnUse" gradientTransform="translate(69.8868 18.0679) scale(7.70479 7.70963)">
<stop stop-color="#FFF000"/>
<stop offset="1" stop-color="#F3AE00"/>
</radialGradient>
<linearGradient id="paint3_linear" x1="47.8415" y1="13.8056" x2="45.4601" y2="36.207" gradientUnits="userSpaceOnUse">
<stop stop-color="#68B92E"/>
<stop offset="1" stop-color="#00A13A"/>
</linearGradient>
<linearGradient id="paint4_linear" x1="140.009" y1="28.3945" x2="141.548" y2="37.2013" gradientUnits="userSpaceOnUse">
<stop stop-color="#BBD900"/>
<stop offset="1" stop-color="#00A13A"/>
</linearGradient>
<clipPath id="clip0">
<rect width="161" height="107" fill="white"/>
</clipPath>
</defs>
</svg>
