<svg width="100" height="100" viewBox="0 0 100 100" fill="none" xmlns="http://www.w3.org/2000/svg">
<path d="M0 20C0 8.9543 8.95431 0 20 0H98C99.1046 0 100 0.895431 100 2V80C100 91.0457 91.0457 100 80 100H2C0.895429 100 0 99.1046 0 98V20Z" fill="#F26522"/>
<g clip-path="url(#clip0)">
<path d="M70.6055 25C68.6982 25 67.0875 26.2283 66.4808 27.9297H54.3945V26.4648C54.3945 25.6552 53.7394 25 52.9297 25H47.0703C46.2606 25 45.6055 25.6552 45.6055 26.4648V27.9297H33.5192C32.9125 26.2283 31.3018 25 29.3945 25C26.9713 25 25 26.9713 25 29.3945C25 31.8178 26.9713 33.7891 29.3945 33.7891C31.3018 33.7891 32.9125 32.5607 33.5192 30.8584H39.0834C32.4501 34.6944 27.9297 41.8781 27.9297 49.9023C27.9297 50.712 28.5849 51.3672 29.3945 51.3672C30.2042 51.3672 30.8594 50.712 30.8594 49.9023C30.8594 41.0704 37.1611 33.4678 45.6055 31.452V32.3242C45.6055 33.1339 46.2606 33.7891 47.0703 33.7891H52.9297C53.7394 33.7891 54.3945 33.1339 54.3945 32.3242V31.452C62.8389 33.4678 69.1406 41.0704 69.1406 49.9023C69.1406 50.712 69.7958 51.3672 70.6055 51.3672C71.4151 51.3672 72.0703 50.712 72.0703 49.9023C72.0703 41.8808 67.5501 34.6944 60.9168 30.8594H66.4808C67.0875 32.5607 68.6982 33.7891 70.6055 33.7891C73.0287 33.7891 75 31.8178 75 29.3945C75 26.9713 73.0287 25 70.6055 25Z" fill="#131A22"/>
<path d="M55.8594 73.5352V69.043H44.1406V73.5352C44.1406 74.3448 44.7958 75 45.6055 75H54.3945C55.2042 75 55.8594 74.3448 55.8594 73.5352Z" fill="#131A22"/>
<path d="M38.4357 58.1338C38.2011 58.6044 38.2354 59.1637 38.5273 59.6014L42.8683 66.1132H57.1316L61.4727 59.6014C61.7645 59.1637 61.7989 58.6044 61.5643 58.1338L51.4648 37.8373V58.7889C51.4648 59.5986 50.8096 60.2538 50 60.2538C49.1903 60.2538 48.5351 59.5986 48.5351 58.7889V37.8373L38.4357 58.1338Z" fill="#131A22"/>
</g>
<defs>
<clipPath id="clip0">
<rect width="50" height="50" fill="white" transform="translate(25 25)"/>
</clipPath>
</defs>
</svg>
