<svg width="100" height="100" viewBox="0 0 100 100" fill="none" xmlns="http://www.w3.org/2000/svg">
<path d="M0 20C0 8.9543 8.95431 0 20 0H98C99.1046 0 100 0.895431 100 2V80C100 91.0457 91.0457 100 80 100H2C0.895429 100 0 99.1046 0 98V20Z" fill="#F26522"/>
<path d="M25.2622 42.8265L47.2291 70.0967L37.2651 42.8265H25.2622Z" fill="#131A22"/>
<path d="M39.2231 42.8265L49.8389 71.881L60.6633 42.8265H39.2231Z" fill="#131A22"/>
<path d="M52.2041 70.8008L74.7372 42.8265H62.6249L52.2041 70.8008Z" fill="#131A22"/>
<path d="M66.1417 28.1182H51.9316L61.675 40.11L66.1417 28.1182Z" fill="#131A22"/>
<path d="M60.0188 40.988L49.9996 28.6578L39.9814 40.988H60.0188Z" fill="#131A22"/>
<path d="M48.0683 28.1182H33.8481L38.2597 40.1909L48.0683 28.1182Z" fill="#131A22"/>
<path d="M32.3165 29.282L25 40.988H36.5929L32.3165 29.282Z" fill="#131A22"/>
<path d="M74.9999 40.988L67.6761 29.27L63.3096 40.988H74.9999Z" fill="#131A22"/>
</svg>
