<svg width="100" height="100" viewBox="0 0 100 100" fill="none" xmlns="http://www.w3.org/2000/svg">
<path d="M0 20C0 8.9543 8.95431 0 20 0H98C99.1046 0 100 0.895431 100 2V80C100 91.0457 91.0457 100 80 100H2C0.895429 100 0 99.1046 0 98V20Z" fill="#F26522"/>
<path d="M72.6904 55.702C71.6842 65.8328 63.4755 73.9754 53.3375 74.9069C41.3532 76.0082 31.134 67.1969 29.9486 55.7444H27.8365C26.5524 55.7444 25.7499 54.3542 26.3921 53.2423L31.1157 45.0624C31.7578 43.9506 33.3627 43.9507 34.0047 45.0625L38.7275 53.2424C39.3695 54.3544 38.567 55.7444 37.283 55.7444H35.4443C36.6388 64.295 44.5992 70.7078 53.7263 69.3701C60.4801 68.3803 65.9585 63.0518 67.1064 56.323C68.8246 46.2518 61.0747 37.4865 51.3163 37.4865C48.1518 37.4865 45.0974 38.4047 42.4738 40.1433C41.2561 40.9502 39.5682 40.7905 38.6749 39.6349C37.7023 38.3766 38.0059 36.5802 39.3029 35.7044C42.1179 33.8028 45.309 32.6144 48.6524 32.2006V29.1H46.4642C45.7113 29.1 45.101 28.4897 45.101 27.7368V26.3632C45.101 25.6103 45.7113 25 46.4642 25H56.6122C57.365 25 57.9754 25.6103 57.9754 26.3632V27.7368C57.9754 28.4896 57.3651 29.1 56.6122 29.1H54.2019V32.2329C65.3826 33.7415 73.8648 43.8776 72.6904 55.702ZM73.3965 35.0707L69.286 31.2712C68.7331 30.7602 67.8707 30.7941 67.3595 31.347L66.2722 32.5234C65.7611 33.0762 65.795 33.9387 66.3479 34.4498L70.4584 38.2492C71.0113 38.7601 71.8737 38.7263 72.3849 38.1734L73.4722 36.9971C73.9833 36.4442 73.9494 35.5817 73.3965 35.0707ZM51.2517 40.2891V53.622H64.4514C64.4516 45.5024 58.2912 40.2891 51.2517 40.2891Z" fill="#131A22"/>
</svg>
