<svg width="100" height="100" viewBox="0 0 100 100" fill="none" xmlns="http://www.w3.org/2000/svg">
<path d="M0 20C0 8.9543 8.95431 0 20 0H98C99.1046 0 100 0.895431 100 2V80C100 91.0457 91.0457 100 80 100H2C0.895429 100 0 99.1046 0 98V20Z" fill="#F26522"/>
<g clip-path="url(#clip0)">
<path d="M35.5184 70.3619L35.49 70.8319H33.8939V73.9976H66.1058V70.8319H64.5107L64.4813 70.3619L64.1982 65.7354H75.0002V46.9844L65.3478 38.8703H61.4783L60.8011 26.0024H39.1985L38.5217 38.8703H34.6522L25 46.9844V65.7353H35.8014L35.5184 70.3619ZM41.4912 45.7254C41.545 45.4415 41.6076 45.16 41.6833 44.8827C41.7047 44.8053 41.7233 44.728 41.7457 44.6511H39.0601H38.2166H36.0755C35.6094 44.6511 35.2329 44.2738 35.2329 43.8084C35.2329 43.3435 35.6094 42.9659 36.0755 42.9659H38.3054H39.1489H39.9923L40.2078 38.8706L40.7971 27.6881H59.2014L59.7905 38.8706L60.0061 42.9659H60.8496H61.6931H63.9232C64.3889 42.9659 64.7657 43.3435 64.7657 43.8084C64.7657 44.2738 64.3889 44.6511 63.9232 44.6511H61.7818H60.9376H58.5725C58.5954 44.728 58.6152 44.8054 58.6358 44.8827C58.7106 45.16 58.7741 45.4415 58.8276 45.7254C58.905 46.1392 58.9659 46.5581 58.9963 46.9844C59.0169 47.2601 59.0275 47.5373 59.0275 47.8171C59.0275 48.1314 59.0103 48.4405 58.9855 48.7473C58.8752 50.0863 58.5295 51.3478 57.9963 52.481C57.5519 53.4241 56.9776 54.275 56.2994 55.0091C54.7045 56.739 52.5437 57.8087 50.1598 57.8087C47.7767 57.8087 45.6152 56.739 44.0199 55.0091C43.3426 54.275 42.7679 53.4241 42.3239 52.481C41.7902 51.347 41.445 50.0855 41.3342 48.7473C41.3091 48.4404 41.2922 48.1314 41.2922 47.8171C41.2922 47.5373 41.3033 47.26 41.3235 46.9844C41.3542 46.5588 41.4138 46.1392 41.4912 45.7254ZM32.2086 53.7995H29.6669V49.5708H32.2086V53.7995ZM61.6651 65.7353L61.9582 70.5158H38.0423L38.3349 65.7353H61.6651Z" fill="#131A22"/>
<path d="M43.74 52.4812C44.2914 53.4787 45.0094 54.3411 45.8563 55.0093C47.08 55.9753 48.5613 56.5449 50.159 56.5449C51.7566 56.5449 53.2379 55.977 54.4616 55.0093C55.3076 54.3411 56.0259 53.4786 56.5774 52.4812C57.188 51.3786 57.5922 50.1116 57.7182 48.7475C57.7461 48.4413 57.7625 48.1316 57.7625 47.8173C57.7625 47.5359 57.7477 47.2592 57.7255 46.9846C57.6901 46.5557 57.6294 46.1344 57.542 45.7255C57.4802 45.4382 57.4037 45.1584 57.318 44.8829C57.2934 44.8047 57.2662 44.7282 57.2399 44.6513C57.1692 44.4434 57.0927 44.2402 57.0087 44.0402C56.8516 43.6661 56.6731 43.3081 56.4738 42.9659C56.4031 42.8445 56.3323 42.7215 56.2564 42.6046C56.2564 42.6039 56.2556 42.6039 56.2556 42.6029C56.1041 42.3693 55.9421 42.1454 55.7709 41.931C55.027 40.8785 54.3753 39.8523 53.8009 38.8706C51.0901 34.2477 50.1582 30.6713 50.1582 30.6713C50.1582 30.6713 49.2253 34.2469 46.5162 38.8706C45.9407 39.8523 45.2901 40.8785 44.5448 41.931C44.3741 42.1454 44.2119 42.3693 44.0606 42.6029C44.0606 42.6039 44.0598 42.6039 44.0598 42.6046C43.9836 42.7215 43.9137 42.8445 43.8429 42.9659C43.6433 43.3081 43.4647 43.6661 43.3079 44.0402C43.2244 44.2402 43.147 44.4442 43.0763 44.6513C43.05 44.7282 43.0233 44.8047 42.9986 44.8829C42.9126 45.1586 42.836 45.4384 42.7742 45.7255C42.6865 46.1346 42.6261 46.555 42.5907 46.9846C42.5681 47.2594 42.5537 47.5359 42.5537 47.8173C42.5537 48.1316 42.5698 48.4415 42.5982 48.7475C42.7266 50.1116 43.1311 51.3784 43.74 52.4812ZM53.9095 42.4525C54.0543 42.6195 54.1736 42.7947 54.3029 42.9656C54.5679 43.3153 54.805 43.6728 55.0089 44.0399C55.1208 44.2415 55.2229 44.4456 55.3168 44.651C55.3513 44.7279 55.3827 44.8053 55.4139 44.8825C55.529 45.1598 55.6295 45.4404 55.7101 45.7252C55.8295 46.1383 55.9125 46.5579 55.961 46.9843C56.0259 47.5615 56.0326 48.149 55.9668 48.7474C55.8951 49.4012 55.7569 50.0644 55.5273 50.7364C55.1027 51.9708 53.1375 51.4408 53.5639 50.1957C53.7333 49.7044 53.842 49.2227 53.9111 48.7474C53.9991 48.1455 54.0091 47.5565 53.9275 46.9843C53.8657 46.5554 53.7465 46.1366 53.5853 45.7252C53.4724 45.4397 53.3349 45.1581 53.1722 44.8825C53.1261 44.8061 53.0892 44.727 53.0389 44.651C52.9041 44.444 52.7477 44.2407 52.5831 44.0399C52.5419 43.9913 52.5122 43.9398 52.4695 43.8918C52.2159 43.5976 52.1666 43.2647 52.2423 42.9656C52.42 42.2602 53.3047 41.7537 53.9095 42.4525Z" fill="#131A22"/>
</g>
<defs>
<clipPath id="clip0">
<rect width="50" height="50" fill="white" transform="translate(25 25)"/>
</clipPath>
</defs>
</svg>
