<svg width="100" height="100" viewBox="0 0 100 100" fill="none" xmlns="http://www.w3.org/2000/svg">
<path d="M0 20C0 8.9543 8.95431 0 20 0H98C99.1046 0 100 0.895431 100 2V80C100 91.0457 91.0457 100 80 100H2C0.895429 100 0 99.1046 0 98V20Z" fill="#F26522"/>
<path d="M74.9908 42.5C74.9083 41.0742 73.2125 39.96 69.8208 39.11C69.935 38.86 69.9992 38.6 70 38.33V32.5H69.9858C69.6875 27.6433 49.7858 27.5 47.5 27.5C45.2142 27.5 25.3125 27.6433 25.0142 32.5H25V32.6083V38.3325C25.0042 39.9158 27.0475 41.155 30.0875 42.0775C30.0458 42.2158 30.0208 42.3567 30.0125 42.5H30V42.6083V48.3225C26.725 49.1658 25.0892 50.2642 25.0083 51.6667H25V51.775V57.4992C25.0025 58.6017 25.9967 59.5367 27.6233 60.3158C27.5625 60.4842 27.5233 60.6567 27.5125 60.8333H27.5V60.9417V66.6658C27.5067 69.4375 33.7475 71.1583 40.6817 71.9617C40.7325 71.9717 40.7792 71.9925 40.8333 71.9925C40.8492 71.9925 40.8625 71.9842 40.8783 71.9833C42.215 72.1342 43.5733 72.2517 44.9175 72.3358C44.9458 72.3392 44.9708 72.3525 45 72.3525C45.0158 72.3525 45.0283 72.3442 45.0433 72.3433C46.75 72.4475 48.4292 72.5 50 72.5C51.5708 72.5 53.25 72.4475 54.9567 72.3433C54.9717 72.3442 54.985 72.3525 55 72.3525C55.0292 72.3525 55.0542 72.3383 55.0825 72.3358C56.4267 72.2517 57.785 72.135 59.1217 71.9833C59.1375 71.9833 59.1508 71.9917 59.1667 71.9917C59.2208 71.9917 59.2675 71.9708 59.3183 71.9608C66.2525 71.1575 72.4925 69.4358 72.5 66.6633V60.8333H72.4867C72.4283 59.8117 71.5575 58.9592 69.8375 58.2467C69.9425 58.0058 70 57.7558 70 57.4967V52.05C72.9917 51.13 74.9958 49.8992 75 48.33V42.5H74.9908ZM30.8333 40.5617V36.5358C31.6117 36.7458 32.4483 36.9375 33.3333 37.1117V41.1792C33.2308 41.1575 33.125 41.1358 33.025 41.1142C32.5817 41.0167 32.1492 40.915 31.7358 40.8075C31.4208 40.7267 31.1217 40.6442 30.8333 40.5617ZM68.1425 38.735L68.1192 38.73L67.8158 38.9658C67.3758 39.3083 66.7 39.655 65.8333 39.99V36.0258C66.8242 35.6808 67.6675 35.2983 68.3333 34.8792V38.3275C68.3333 38.4542 68.2667 38.5908 68.1425 38.735ZM45.9792 57.4858C46.2083 57.49 46.4375 57.4933 46.6667 57.4958V61.6608C46.505 61.6592 46.3433 61.6592 46.1825 61.6567C46.1092 61.6558 46.0383 61.6533 45.9658 61.6525C45.5842 61.6458 45.2042 61.6367 44.8267 61.625C44.78 61.6233 44.7333 61.6217 44.6867 61.62C44.2325 61.605 43.7817 61.5858 43.3342 61.5642V57.4042C44.1692 57.4433 45.0083 57.4692 45.8475 57.4842C45.8908 57.4842 45.935 57.485 45.9792 57.4858ZM49.1533 57.4833C49.9925 57.4675 50.8317 57.4417 51.6667 57.4033V61.5642C51.4883 61.5733 51.3092 61.5817 51.1283 61.5892C50.6283 61.61 50.1208 61.6275 49.605 61.64C49.4833 61.6433 49.3608 61.645 49.2383 61.6475C48.9408 61.6533 48.6358 61.655 48.3342 61.6575V57.495C48.5633 57.4925 48.7925 57.4892 49.0217 57.485C49.065 57.485 49.1092 57.4842 49.1533 57.4833ZM53.8883 61.4233C53.705 61.4375 53.52 61.4517 53.3333 61.465V57.3092C54.1783 57.2533 55.0133 57.1867 55.8333 57.1067V61.245C55.3183 61.2992 54.7917 61.35 54.2508 61.3942C54.13 61.405 54.0092 61.4142 53.8883 61.4233ZM57.5 56.9267C58.3592 56.8233 59.1933 56.7058 60 56.575V60.6667C59.215 60.805 58.3808 60.9325 57.5 61.0483V56.9267ZM39.5992 61.29C39.5142 61.2817 39.43 61.2725 39.3458 61.2642C39.2858 61.2583 39.2267 61.2508 39.1667 61.245V57.1075C39.9867 57.1867 40.8217 57.2542 41.6667 57.31V61.4625C40.9667 61.4125 40.275 61.3558 39.5992 61.29ZM37.5 56.9267V61.0483C36.6192 60.9325 35.785 60.805 35 60.6667V56.575C35.8067 56.7058 36.6408 56.8242 37.5 56.9267ZM61.6667 60.345V56.2775C62.5517 56.1033 63.3883 55.9117 64.1667 55.7017V59.7275C63.4242 59.9417 62.5883 60.1492 61.6667 60.345ZM45.9792 38.3192C46.2083 38.3233 46.4375 38.3267 46.6667 38.3292V42.49C45.545 42.4792 44.43 42.45 43.3333 42.395V38.2375C44.1683 38.2767 45.0075 38.3025 45.8467 38.3175C45.8908 38.3175 45.935 38.3183 45.9792 38.3192ZM49.1533 38.3167C49.9925 38.3008 50.8317 38.275 51.6667 38.2367V42.3942C51.525 42.4008 51.3892 42.4108 51.2467 42.4175C51.235 42.4183 51.2233 42.4183 51.2108 42.4192C50.6517 42.4442 50.0817 42.4625 49.5042 42.4758C49.4142 42.4783 49.3242 42.4792 49.2342 42.4817C48.9375 42.4875 48.6342 42.4883 48.3333 42.4917V38.3292C48.5625 38.3267 48.7917 38.3233 49.0208 38.3192C49.065 38.3183 49.1092 38.3175 49.1533 38.3167ZM54.1533 48.3167C54.9925 48.3008 55.8317 48.275 56.6667 48.2367V52.3933C55.5717 52.4475 54.4583 52.4775 53.3333 52.4892V48.3292C53.5625 48.3267 53.7917 48.3233 54.0208 48.3192C54.065 48.3183 54.1092 48.3175 54.1533 48.3167ZM46.1225 52.2575C45.5892 52.2158 45.0683 52.17 44.56 52.1192C44.4508 52.1083 44.3417 52.0967 44.2333 52.0858C44.2108 52.0833 44.1892 52.08 44.1667 52.0783V47.94C44.9867 48.0192 45.8217 48.0867 46.6667 48.1425V52.2958C46.5992 52.2908 46.5275 52.2875 46.46 52.2825C46.3467 52.2742 46.2342 52.2658 46.1225 52.2575ZM40.9542 51.66C40.6242 51.6075 40.3142 51.5508 40 51.4958V47.4092C40.8067 47.54 41.6408 47.6575 42.5 47.7608V51.8825C41.99 51.815 41.4908 51.745 41.0117 51.67C40.9925 51.6658 40.9733 51.6625 40.9542 51.66ZM50.9792 48.3192C51.2083 48.3233 51.4375 48.3267 51.6667 48.3292V52.49C51.2608 52.4858 50.8517 52.4842 50.4558 52.475C50.395 52.4733 50.3317 52.4725 50.2708 52.4717C49.6442 52.4558 49.0317 52.4317 48.43 52.4025C48.3975 52.4008 48.365 52.3992 48.3333 52.3983V48.2375C49.1683 48.2767 50.0075 48.3025 50.8467 48.3175C50.8908 48.3175 50.935 48.3183 50.9792 48.3192ZM59.3683 52.2175C59.3383 52.22 59.3092 52.2225 59.2792 52.225C58.9683 52.2508 58.6475 52.2675 58.3325 52.29V48.1417C59.1775 48.0858 60.0125 48.0192 60.8325 47.9392V52.0733C60.3492 52.125 59.8658 52.1758 59.3683 52.2175ZM39.1667 42.075V37.94C39.9867 38.0192 40.8217 38.0867 41.6667 38.1425V42.2908C40.8183 42.23 39.9817 42.1608 39.1667 42.075ZM55.8333 42.0733C55.0283 42.1583 54.195 42.2325 53.3333 42.2942V38.1425C54.1783 38.0867 55.0133 38.02 55.8333 37.94V42.0733ZM57.5 37.76C58.3592 37.6567 59.1933 37.5392 60 37.4083V41.4933C59.21 41.6325 58.3783 41.7608 57.5 41.8767V37.76ZM61.6667 41.1725V37.1117C62.5517 36.9375 63.3883 36.7458 64.1667 36.5358V40.5525C63.42 40.77 62.5792 40.9775 61.6667 41.1725ZM37.5 37.76V41.8775C37.335 41.8558 37.1633 41.8383 37 41.8158C36.8933 41.8008 36.7917 41.785 36.6867 41.77C36.205 41.7008 35.7342 41.6267 35.2725 41.5492C35.18 41.5333 35.0908 41.5167 35 41.5008V37.4092C35.8067 37.5392 36.6408 37.6575 37.5 37.76ZM38.3333 47.1108V51.1717C37.4125 50.9742 36.5775 50.7642 35.8333 50.5458V46.535C36.6117 46.745 37.4483 46.9375 38.3333 47.1108ZM64.9225 51.5142C64.5567 51.5775 64.1875 51.64 63.8083 51.6975C63.5908 51.7308 63.3683 51.7625 63.145 51.7942C62.9342 51.8242 62.715 51.85 62.5008 51.8775V47.76C63.36 47.6567 64.1942 47.5392 65.0008 47.4083V51.5C64.9742 51.505 64.9483 51.51 64.9225 51.5142ZM34.1667 46.0258V49.985C32.8567 49.4792 32.0117 48.9625 31.7367 48.5025L31.6808 48.4092C31.6758 48.3833 31.6675 48.3558 31.6667 48.33V44.8792C32.3325 45.2983 33.1758 45.6808 34.1667 46.0258ZM33.3333 56.2775V60.345C32.5683 60.1825 31.8625 60.0117 31.22 59.8367C31.1183 59.8083 31.0133 59.7808 30.9142 59.7517C30.8867 59.7433 30.8608 59.7358 30.8333 59.7283V55.7025C31.6117 55.9117 32.4483 56.1042 33.3333 56.2775ZM35.8333 65.4442V69.5117C34.9117 69.3158 34.0758 69.1083 33.3333 68.8942V64.8683C34.1117 65.0783 34.9483 65.2708 35.8333 65.4442ZM37.5 65.7425C38.3067 65.8733 39.1408 65.9908 40 66.0942V70.2158C39.1192 70.1 38.285 69.9725 37.5 69.8342V65.7425ZM41.6667 66.2733C42.4867 66.3525 43.3217 66.42 44.1667 66.4758V70.6317C43.3008 70.5708 42.4675 70.4967 41.6667 70.4125V66.2733ZM45.8333 66.57C46.6683 66.6092 47.5075 66.635 48.3467 66.65C48.3908 66.6508 48.435 66.6517 48.4783 66.6525C48.7075 66.6567 48.9367 66.66 49.1658 66.6625V70.8283C48.0142 70.8175 46.9025 70.7842 45.8325 70.7317V66.57H45.8333ZM50.8333 66.6617C51.0625 66.6592 51.2917 66.6558 51.5208 66.6517C51.565 66.6508 51.6092 66.65 51.6533 66.6492C52.4925 66.6333 53.3317 66.6075 54.1667 66.5692V70.73C53.0967 70.7825 51.985 70.8158 50.8333 70.8267V66.6617ZM55.8333 66.4758C56.6783 66.42 57.5133 66.3533 58.3333 66.2733V70.4117C57.5325 70.4958 56.6992 70.57 55.8333 70.6308V66.4758ZM60 66.0933C60.8592 65.99 61.6933 65.8725 62.5 65.7417V69.8333C61.715 69.9717 60.8808 70.0992 60 70.215V66.0933ZM64.1667 65.4442C65.0517 65.27 65.8883 65.0783 66.6667 64.8683V68.8942C65.9242 69.1083 65.0883 69.3158 64.1667 69.5117V65.4442ZM68.2433 57.7675L67.9592 58.0167C67.5217 58.4025 66.7925 58.7917 65.8333 59.1667V55.1933C66.8242 54.8483 67.6675 54.4658 68.3333 54.0467V57.495C68.3333 57.5808 68.3017 57.6725 68.2433 57.7675ZM68.8033 50.6633C68.3883 50.7792 67.9492 50.8875 67.5008 50.9933C67.2933 51.0417 67.0817 51.09 66.865 51.1367C66.8008 51.1508 66.7325 51.1633 66.6675 51.1775V47.1117C67.5525 46.9375 68.3892 46.7458 69.1675 46.5358V50.5617C69.0475 50.595 68.9267 50.6292 68.8033 50.6633ZM26.6667 38.33V34.8792C27.3325 35.2983 28.1758 35.6808 29.1667 36.0258V40.0158C27.5458 39.4083 26.6683 38.7992 26.6667 38.33ZM26.6667 57.4967V54.0458C27.3325 54.465 28.1758 54.8475 29.1667 55.1925V59.1667L28.6908 58.9817L28.6808 58.9917C27.3725 58.4492 26.6683 57.9167 26.6667 57.4967ZM29.1667 66.6633V63.2125C29.8325 63.6317 30.6758 64.0142 31.6667 64.3592V68.3492C30.0458 67.7417 29.1683 67.1325 29.1667 66.6633ZM68.3333 68.3492V64.36C69.3242 64.015 70.1675 63.6325 70.8333 63.2133V66.6617C70.8325 67.1308 69.9542 67.7408 68.3333 68.3492ZM70.8333 50.0158V46.0267C71.8242 45.6817 72.6675 45.2992 73.3333 44.88V48.3283C73.3325 48.7975 72.4542 49.4075 70.8333 50.0158Z" fill="#131A22"/>
</svg>
