<svg width="608" height="691" viewBox="0 0 608 691" fill="none" xmlns="http://www.w3.org/2000/svg">
<path opacity="0.1" fill-rule="evenodd" clip-rule="evenodd" d="M162 250C162 202.671 175.152 158.415 198 120.685V155.123H248.046V143.34H212.871V120.926H240.583V109.581H212.871V98.8232C215.781 94.9958 218.799 91.2549 221.921 87.6049H248.046V75.8769H232.609C278.041 29.0789 341.625 0 412 0H608V176H551.865V187.615H574.897V252H589.074V187.615H608V669H162V250ZM486 115.5C486 121.309 485.031 126.698 483.092 131.667C481.153 136.599 478.427 140.874 474.915 144.491C471.403 148.108 467.178 150.94 462.239 152.986C457.301 154.995 451.831 156 445.832 156C439.832 156 434.345 154.995 429.369 152.986C424.431 150.94 420.187 148.108 416.638 144.491C413.127 140.874 410.401 136.599 408.462 131.667C406.523 126.698 405.554 121.309 405.554 115.5C405.554 109.691 406.523 104.32 408.462 99.3877C410.401 94.4188 413.127 90.1258 416.638 86.5088C420.187 82.8917 424.431 80.0785 429.369 78.069C434.345 76.023 439.832 75 445.832 75C451.831 75 457.301 76.023 462.239 78.069C467.178 80.115 471.403 82.9465 474.915 86.5636C478.427 90.1441 481.153 94.4188 483.092 99.3877C485.031 104.32 486 109.691 486 115.5ZM470.855 115.5C470.855 111.152 470.269 107.261 469.099 103.827C467.965 100.356 466.318 97.4147 464.16 95.0034C462.002 92.592 459.368 90.7469 456.258 89.4682C453.185 88.1894 449.71 87.5501 445.832 87.5501C441.954 87.5501 438.46 88.1894 435.351 89.4682C432.241 90.7469 429.589 92.592 427.394 95.0034C425.236 97.4147 423.571 100.356 422.4 103.827C421.23 107.261 420.644 111.152 420.644 115.5C420.644 119.848 421.23 123.757 422.4 127.228C423.571 130.662 425.236 133.585 427.394 135.997C429.589 138.371 432.241 140.198 435.351 141.477C438.46 142.756 441.954 143.395 445.832 143.395C449.71 143.395 453.185 142.756 456.258 141.477C459.368 140.198 462.002 138.371 464.16 135.997C466.318 133.585 467.965 130.662 469.099 127.228C470.269 123.757 470.855 119.848 470.855 115.5ZM292.743 143.231C295.596 143.231 298.139 142.756 300.37 141.806C302.638 140.856 304.541 139.522 306.077 137.805C307.65 136.088 308.839 134.005 309.644 131.558C310.486 129.11 310.906 126.369 310.906 123.337V75.8769H325.668V123.337C325.668 128.05 324.899 132.416 323.363 136.435C321.863 140.417 319.686 143.87 316.833 146.793C313.979 149.679 310.522 151.945 306.461 153.589C302.401 155.196 297.828 156 292.743 156C287.658 156 283.085 155.196 279.024 153.589C274.963 151.945 271.506 149.679 268.653 146.793C265.836 143.87 263.659 140.417 262.123 136.435C260.623 132.416 259.873 128.05 259.873 123.337V75.8769H274.634V123.282C274.634 126.315 275.037 129.055 275.841 131.503C276.683 133.951 277.872 136.051 279.408 137.805C280.945 139.522 282.829 140.856 285.06 141.806C287.328 142.756 289.889 143.231 292.743 143.231ZM355.908 155.123V124.159H362.218C363.682 124.159 364.779 124.36 365.511 124.762C366.279 125.164 366.974 125.84 367.596 126.79L384.278 152.164C384.9 153.114 385.65 153.844 386.528 154.356C387.442 154.867 388.54 155.123 389.82 155.123H403.1L383.235 125.858C381.882 123.885 380.272 122.369 378.406 121.309C381.187 120.432 383.656 119.263 385.814 117.802C388.009 116.34 389.839 114.641 391.302 112.705C392.802 110.769 393.936 108.613 394.704 106.238C395.509 103.863 395.911 101.342 395.911 98.6752C395.911 95.3139 395.326 92.2449 394.155 89.4682C393.021 86.6549 391.21 84.2436 388.723 82.2341C386.272 80.2246 383.107 78.6719 379.229 77.5758C375.388 76.4432 370.76 75.8769 365.346 75.8769H341.146V155.123H355.908ZM365.127 113.582H355.908V87.276H365.346C370.797 87.276 374.839 88.3539 377.473 90.5095C380.144 92.6651 381.479 95.7524 381.479 99.7713C381.479 101.781 381.15 103.626 380.492 105.306C379.833 106.987 378.827 108.449 377.473 109.691C376.156 110.896 374.455 111.846 372.37 112.541C370.321 113.235 367.907 113.582 365.127 113.582ZM325.177 225.248V252H311V176H335.823C340.918 176 345.328 176.596 349.052 177.787C352.776 178.978 355.851 180.643 358.275 182.78C360.7 184.917 362.492 187.475 363.651 190.454C364.811 193.432 365.39 196.691 365.39 200.23C365.39 203.909 364.775 207.29 363.546 210.373C362.316 213.422 360.471 216.05 358.012 218.257C355.552 220.465 352.478 222.182 348.789 223.408C345.099 224.634 340.778 225.248 335.823 225.248H325.177ZM325.177 214.21H335.823C338.424 214.21 340.69 213.895 342.622 213.264C344.555 212.598 346.153 211.67 347.418 210.479C348.683 209.252 349.632 207.781 350.264 206.064C350.897 204.312 351.213 202.367 351.213 200.23C351.213 198.197 350.897 196.358 350.264 194.711C349.632 193.064 348.683 191.663 347.418 190.506C346.153 189.35 344.555 188.474 342.622 187.878C340.69 187.248 338.424 186.932 335.823 186.932H325.177V214.21ZM391.057 222.304V252H376.88V176H400.122C405.322 176 409.767 176.543 413.456 177.629C417.18 178.68 420.22 180.17 422.574 182.097C424.963 184.024 426.702 186.337 427.791 189.035C428.916 191.698 429.478 194.641 429.478 197.864C429.478 200.422 429.091 202.84 428.318 205.118C427.581 207.395 426.491 209.462 425.051 211.32C423.645 213.177 421.889 214.806 419.78 216.207C417.707 217.609 415.336 218.73 412.665 219.571C414.457 220.587 416.003 222.041 417.303 223.934L436.382 252H423.628C422.398 252 421.344 251.755 420.466 251.264C419.622 250.774 418.902 250.073 418.305 249.162L402.283 224.827C401.686 223.916 401.018 223.268 400.28 222.882C399.577 222.497 398.523 222.304 397.118 222.304H391.057ZM391.057 212.16H399.911C402.581 212.16 404.9 211.828 406.868 211.162C408.871 210.496 410.505 209.585 411.77 208.429C413.07 207.237 414.036 205.836 414.668 204.224C415.301 202.612 415.617 200.843 415.617 198.916C415.617 195.061 414.334 192.101 411.77 190.033C409.24 187.966 405.357 186.932 400.122 186.932H391.057V212.16ZM447.215 252H461.445V176H447.215V252ZM486.053 176C486.685 176 487.212 176.035 487.634 176.105C488.056 176.14 488.425 176.245 488.741 176.42C489.092 176.561 489.426 176.788 489.742 177.104C490.058 177.384 490.41 177.769 490.796 178.26L530.798 229.084C530.658 227.858 530.552 226.667 530.482 225.51C530.447 224.319 530.429 223.215 530.429 222.199V176H542.92V252H535.594C534.47 252 533.539 251.825 532.801 251.474C532.063 251.124 531.343 250.493 530.64 249.582L490.796 198.968C490.902 200.089 490.972 201.211 491.007 202.332C491.077 203.418 491.112 204.417 491.112 205.328V252H478.622V176H486.053Z" fill="#37475A"/>
</svg>
